<svg aria-hidden="true" class="svg-icon iconBalloon" width="18" height="18"  viewBox="0 0 18 18"><path  fill-opacity=".4" d="M10.26 17h-.2a3.6 3.6 0 0 1-3.61-3.61.5.5 0 1 1 1 0A2.6 2.6 0 0 0 10.06 16h.2a2.6 2.6 0 0 0 2.61-2.82 3.6 3.6 0 0 1 3.61-3.4.5.5 0 0 1 .5.5.5.5 0 0 1-.5.5 2.6 2.6 0 0 0-2.61 2.61q0 .1-.05.2A3.6 3.6 0 0 1 10.26 17"/><path fill="#F75D37" d="M6.94 1.23c2.69 0 4.87 2.8 4.87 5.49 0 2.48-1.81 5.95-4.21 6.48.03.4-.24.71-.63.71-.36 0-.68-.35-.63-.7-2.41-.49-4.28-4-4.28-6.49 0-2.72 2.19-5.49 4.88-5.49m-.09 2.62a.5.5 0 1 0-.7-.7l-2 2a.5.5 0 1 0 .7.7z"/></svg>