<svg aria-hidden="true" class="svg-icon iconConfluence" width="18" height="18"  viewBox="0 0 18 18"><path fill="url(#Confluencea)" d="m1.58 12.74-.5.83a.5.5 0 0 0 .16.7l3.31 2.03a.5.5 0 0 0 .7-.17l.5-.82c1.3-2.17 2.62-1.9 5-.77l3.28 1.56a.5.5 0 0 0 .69-.25l1.57-3.56a.5.5 0 0 0-.25-.67l-3.3-1.57C8.26 7.88 4.47 8.02 1.57 12.74"/><path fill="url(#Confluenceb)" d="m16.42 4.65.5-.83a.5.5 0 0 0-.16-.7L13.45 1.1a.5.5 0 0 0-.73.16l-.49.82c-1.3 2.17-2.63 1.9-5 .77L3.96 1.28a.5.5 0 0 0-.69.26L1.7 5.1a.5.5 0 0 0 .25.67c.7.32 2.07.97 3.3 1.57 4.48 2.17 8.27 2.02 11.17-2.7"/><defs><linearGradient id="Confluencea" x1="16.2" x2="6.19" y1="17.34" y2="11.58" gradientUnits="userSpaceOnUse"><stop stop-color="#0050D3"/><stop offset=".94" stop-color="#007FFC"/><stop offset="1" stop-color="#0082FF"/></linearGradient><linearGradient id="Confluenceb" x1="1.79" x2="11.81" y1=".02" y2="5.77" gradientUnits="userSpaceOnUse"><stop stop-color="#0050D3"/><stop offset=".94" stop-color="#007FFC"/><stop offset="1" stop-color="#0082FF"/></linearGradient></defs></svg>