<svg aria-hidden="true" class="svg-icon iconDiscord" width="18" height="18"  viewBox="0 0 18 18"><path fill="#5865F2" d="M15.24 3.14A15 15 0 0 0 11.57 2q-.03 0-.05.03c-.16.28-.34.65-.46.94a14 14 0 0 0-4.12 0c-.12-.3-.3-.66-.46-.94L6.42 2a15 15 0 0 0-3.69 1.16A15.2 15.2 0 0 0 .1 13.45a15 15 0 0 0 4.5 2.27l.06-.02q.51-.71.92-1.5a.1.1 0 0 0-.04-.08 10 10 0 0 1-1.4-.67.06.06 0 0 1 0-.1l.27-.21.06-.01a10.6 10.6 0 0 0 9.05 0h.06l.28.23q.04.04 0 .1-.68.38-1.41.66l-.03.08q.4.78.91 1.5.03.02.07.02a15 15 0 0 0 4.52-2.32 15 15 0 0 0-2.68-10.26m-9.22 8.22c-.9 0-1.62-.82-1.62-1.82s.71-1.81 1.62-1.81c.9 0 1.63.82 1.61 1.81 0 1-.71 1.82-1.61 1.82m5.98 0c-.9 0-1.62-.82-1.62-1.82s.71-1.81 1.62-1.81c.9 0 1.63.82 1.61 1.81 0 1-.7 1.82-1.61 1.82"/></svg>