<svg aria-hidden="true" class="svg-icon iconFaceMindBlown" width="18" height="18"  viewBox="0 0 18 18"><path fill="#FFAA3B" d="M1.06 8Q1 8.5 1 9a8 8 0 1 0 15.94-1H16l-1 .5-1-.5h-1.5l-1.5.5L9 8l-.5.5-1-.5H6l-1 .5-.5-.5h-1l-.5.5L2 8z" opacity=".4"/><path fill="#FF9700" d="M3.5 8h.41a11.5 11.5 0 0 0 10.38 7A8 8 0 0 1 1.06 8H2l1 .5z" opacity=".3"/><path fill="var(--black-600)" d="M6.07 14.68a.7.7 0 0 0 .67.28q2.26-.24 4.51 0a.7.7 0 0 0 .67-.28.7.7 0 0 0 .06-.72A3.2 3.2 0 0 0 9 12.36a3.3 3.3 0 0 0-3 1.6.7.7 0 0 0 .07.72"/><path fill="#F75D37" d="M7.36 4.37q.27.35.68.55a2.2 2.2 0 0 0 1.95 0q.4-.2.65-.53c.15.93.36 2.29.36 2.61 0 .5-4 .5-4 0 0-.32.21-1.7.36-2.63"/><path fill="#FFC166" d="M15.33 2.43a2.8 2.8 0 0 0-1.73-.53q-.1-.6-.64-1.05-.54-.4-1.27-.5-.75-.08-1.42.16A3 3 0 0 0 8.4.08q-.59.08-1.06.36A3 3 0 0 0 6.02.37c-.8.13-1.48.6-1.72 1.2q-.16.4-.07.83c-.77.07-1.47.45-1.8.99-.6.98.26 2.4 1.6 2.6.97.14 2.13-.15 2.63-.79Q7 4.8 7 4.3q.32.4.86.62a3 3 0 0 0 2.28 0q.53-.23.85-.63.07.66.65 1.14a2.9 2.9 0 0 0 3.03.25c.81-.42 1.42-1.42 1.32-2.16q-.08-.63-.66-1.09" opacity=".67"/><path fill="#FFC166" d="M7.4 2q1.8-.01 3.26-.55c.9 1.2 2.88 2.13 5.32 2.44A2.6 2.6 0 0 1 13.1 6a2.7 2.7 0 0 1-1.45-.56A1.7 1.7 0 0 1 11 4.3q-.31.4-.85.63a3 3 0 0 1-2.28 0A2 2 0 0 1 7 4.3q0 .49-.34.9c-.5.64-1.66.93-2.62.78-1.35-.2-2.22-1.6-1.6-2.6a2.4 2.4 0 0 1 1.79-.98 1.4 1.4 0 0 1 .1-.88Q5.7 1.99 7.4 2" opacity=".78"/><path fill="#F75D37" d="M11.09 3.47a7.4 7.4 0 0 1-5.43.05c-1 .27-2.17.44-3.42.47-.06.88.71 1.83 1.8 2 .96.14 2.12-.15 2.62-.79Q7 4.8 7 4.3q.32.4.86.62a3 3 0 0 0 2.28 0q.53-.23.85-.63.07.66.65 1.14a2.9 2.9 0 0 0 3.03.25q.53-.29.9-.8a12 12 0 0 1-4.48-1.4" opacity=".52"/><circle cx="11" cy="10.5" r="1.35" fill="var(--black-600)"/><circle cx="7" cy="10.5" r="1.35" fill="var(--black-600)"/><circle cx="3.5" cy="6.5" r=".5"  opacity=".6"/><circle cx="14.5" cy=".5" r=".5"  opacity=".6"/><circle cx="14.5" cy="6.5" r=".5"  opacity=".6"/><circle cx="16.5" cy="4.5" r=".5"  opacity=".6"/><circle cx="3.5" cy=".5" r=".5"  opacity=".6"/><circle cx="1.5" cy="3.5" r=".5"  opacity=".6"/></svg>