<svg aria-hidden="true" class="svg-icon iconFaceSmile" width="18" height="18"  viewBox="0 0 18 18"><circle cx="9" cy="9" r="8" fill="#FFAA3B" opacity=".4"/><path fill="#FF9700" d="M8.41 17a10 10 0 0 1 .38-15.75q.15-.12.28-.25a8 8 0 0 0-.66 16" opacity=".3"/><path fill="var(--black-600)" d="M6.5 8a1.5 1.5 0 1 0 0-3 1.5 1.5 0 0 0 0 3m2.6 6a7.4 7.4 0 0 1-4.79-2.06 1.1 1.1 0 0 1 0-1.54c.42-.51 1.15-.51 1.67-.1.31.3 3.23 2.88 6.15 0a1.06 1.06 0 0 1 1.56.1 1.1 1.1 0 0 1 0 1.54C12.13 13.38 10.56 14 9.1 14M13 6.5a1.5 1.5 0 1 1-3 0 1.5 1.5 0 0 1 3 0"/></svg>