<svg aria-hidden="true" class="svg-icon iconFaceSad" width="18" height="18"  viewBox="0 0 18 18"><circle cx="9" cy="9" r="8" fill="#FFAA3B" opacity=".4"/><path fill="#FF9700" d="M8.41 17a10 10 0 0 1 .38-15.75q.15-.12.28-.25a8 8 0 0 0-.66 16" opacity=".3"/><path fill="var(--black-600)" d="M6.5 8a1.5 1.5 0 1 0 0-3 1.5 1.5 0 0 0 0 3m6.05 3.05a6.6 6.6 0 0 0-7.1 0c-.35.24-.52.73-.42 1.16.15.6.82.99 1.38.63a4.8 4.8 0 0 1 5.12 0 .93.93 0 0 0 1.32-.34c.27-.47.15-1.14-.3-1.45M13 6.5a1.5 1.5 0 1 1-3 0 1.5 1.5 0 0 1 3 0"/></svg>