<svg aria-hidden="true" class="svg-icon iconFire" width="18" height="18"  viewBox="0 0 18 18"><path fill="#FF6700" d="M13.18 9c-.8.33-1.46.6-1.97 1.3A9 9 0 0 0 10 13.89a10 10 0 0 0 1.32-.8 2.5 2.5 0 0 1-.63 2.91h.78a3 3 0 0 0 1.66-.5 4 4 0 0 0 1.26-1.61c.4-.96.47-1.7.55-2.73q.08-1.88-.46-3.68a2 2 0 0 1-.4.91q-.32.4-.9.62" opacity=".6"/><path fill="#EF2E2E" d="M10.4 12.11a7 7 0 0 1 .78-1.76c.3-.47.81-.8 1.37-1.08 0 0-.05-3.27-1.55-5.27S7.63 1.25 6.05 1.39c0 0 4.19 2.94 1.18 5.67-2.14 1.92-3.64 3.81-3.1 5.94a4.1 4.1 0 0 0 3.1 3 4 4 0 0 1 1.08-3.89C9.42 10.92 8 9.79 8 9.79q1.03.04 1.81.72a2 2 0 0 1 .58 1.6"/></svg>