<svg aria-hidden="true" class="svg-icon iconFloat" width="18" height="18"  viewBox="0 0 18 18"><path fill="#AFAFAF" d="M11 6V1.08c-1.3-.16-2.7-.16-4 0V6q2-.29 4 0M1.08 7H6a14 14 0 0 0 0 4H1.08c-.16-1.3-.16-2.7 0-4m15.84 0H12q.29 2 0 4h4.92q.24-2 0-4M7 16.92V12q2 .29 4 0v4.92q-2.03.24-4 0" opacity=".4"/><path fill="#F75D37" d="M7 5.51q-.46.27-.85.64-.37.39-.64.85H1.26A8 8 0 0 1 7 1.26zM12.45 7c-.34-.6-.85-1.1-1.45-1.45V1.26A8 8 0 0 1 16.74 7zm0 4c-.34.6-.85 1.1-1.45 1.45v4.29A8 8 0 0 0 16.74 11zm-6.9 0q.53.91 1.45 1.45v4.29A8 8 0 0 1 1.26 11z"/></svg>