<svg aria-hidden="true" class="svg-icon iconGearSm" width="14" height="14"  viewBox="0 0 14 14"><path  d="m8.17 11.42-.39 1.53a6 6 0 0 1-1.58 0l-.39-1.53q-.58-.15-1.1-.46l-1.35.8q-.63-.47-1.12-1.1l.8-1.37q-.3-.5-.46-1.1L1.05 7.8a6 6 0 0 1 0-1.57l1.53-.4q.15-.6.45-1.11l-.8-1.36q.49-.64 1.1-1.11l1.36.8q.53-.3 1.13-.47l.4-1.53a6 6 0 0 1 1.55 0l.4 1.53q.6.15 1.13.47l1.36-.8q.62.47 1.1 1.1l-.8 1.36q.3.53.46 1.13l1.53.39a6 6 0 0 1 0 1.57l-1.53.39q-.16.6-.47 1.11l.8 1.36q-.49.64-1.11 1.11l-1.36-.8q-.51.3-1.1.45M7 9a2 2 0 1 0 0-4 2 2 0 0 0 0 4"/></svg>