<svg aria-hidden="true" class="svg-icon iconHandPointRight" width="18" height="18"  viewBox="0 0 18 18"><path fill="#FFC166" d="M6 7s1.69-.67 2.25-.86S11 5 12.5 5h3c.75 0 1.5.5 1.5 1.5S16.25 8 15.5 8h-3.28a5.3 5.3 0 0 1-.39 5.61c-.89 1.1-3.46.94-4.13.83-.66-.12-1.04-.25-1.7-.44z"/><path  d="M16.15 1.15a.5.5 0 0 1 .7.7l-1 1a.5.5 0 0 1-.7-.7zm-1 9.7a.5.5 0 0 1 .7-.7l1 1a.5.5 0 0 1-.7.7zm-5.3-9.7a.5.5 0 1 0-.7.7l1 1a.5.5 0 0 0 .7-.7z" opacity=".4"/><path fill="#07C" d="M2 8.5C2 7.67 2.67 7 3.5 7H5v7H3.5A1.5 1.5 0 0 1 2 12.5z" opacity=".7"/></svg>