<svg aria-hidden="true" class="svg-icon iconHandshake" width="18" height="18"  viewBox="0 0 18 18"><path fill="#FFC166" d="m12.22 5.27-2.43-.25a1 1 0 0 0-.59.22l-2.79 2.4a.96.96 0 0 0-.05 1.42c.36.36 1.07.48 1.55.1l2.27-1.88c.2-.15.48-.15.65.03.17.15.17.4-.03.56l-.62.54L14 10V7l-1.02-1.32c-.16-.15-.5-.4-.76-.4M14 11 9.4 9.04l-.85.68c-.84.71-2.1.64-2.87-.1-.73-.74-.67-1.9.14-2.6l2.2-2-2.34.25c-.34.08-.59.26-.76.41L4 7v5l1.9.73c1.43.66 2.74.98 3.89 1.06 1.38 0 2.96-.71 3.87-1.79.2-.24.34-.4.34-1"/><path fill="#07C" d="M18 8.5c0-.83-.67-1.5-1.5-1.5H15v5h1.5c.83 0 1.5-.67 1.5-1.5zm-18 0C0 7.67.67 7 1.5 7H3v5H1.5A1.5 1.5 0 0 1 0 10.5z" opacity=".7"/></svg>