<svg aria-hidden="true" class="svg-icon iconHandRock" width="18" height="18"  viewBox="0 0 18 18"><path fill="#FFC166" d="M14.14 7.86q-.76.45-1.38 1.1c-.27.25-.35.7-.67.48-.26-.19-.35-1.21-.28-1.85s.2-2.45.22-3.07.38-2.11-.71-2.26-1.24 1.64-1.37 2.5-.49 2.54-.49 2.54a.8.8 0 0 0-.8-.44C8.08 6.94 8 7.44 8 7.9a.74.74 0 0 0-.74-.66.8.8 0 0 0-.77.66l-1.4-3.14c-.38-1.15-2.08-.24-1.57.89q.73 1.78 1.2 3.63c.18.92.22 1.54.37 2.45.23.72.41 1.71.91 2.27h5q1.14-1 1.95-2.27c.6-.9 1.32-1.76 1.88-2.66.45-.74.31-1.68-.69-1.21"/><path fill="#07C" d="M6 15.77V15h5v.77c0 .67-.55 1.23-1.21 1.23H7.2c-.65 0-1.2-.56-1.2-1.23" opacity=".7"/><path  d="M7.5 0c.28 0 .5.22.5.5v1a.5.5 0 0 1-1 0v-1c0-.28.22-.5.5-.5M0 8.5c0-.28.22-.5.5-.5h1a.5.5 0 0 1 0 1h-1a.5.5 0 0 1-.5-.5M16.5 8a.5.5 0 0 0 0 1h1a.5.5 0 0 0 0-1zM1.15 2.15c.2-.2.5-.2.7 0l1 1a.5.5 0 1 1-.7.7l-1-1a.5.5 0 0 1 0-.7m13.7.7a.5.5 0 0 0-.7-.7l-1 1a.5.5 0 0 0 .7.7z" opacity=".4"/></svg>