<svg aria-hidden="true" class="svg-icon iconHelpSm" width="14" height="14"  viewBox="0 0 14 14"><path  d="M7 1C3.74 1 1 3.77 1 7c0 3.26 2.77 6 6 6 3.27 0 6-2.73 6-6s-2.73-6-6-6m1.06 9.06c-.02.63-.48 1.02-1.1 1-.57-.02-1.03-.43-1.01-1.06s.5-1.04 1.08-1.02c.6.02 1.05.45 1.03 1.08m.73-3.07-.47.3q-.31.23-.44.6a4 4 0 0 0-.08.65c0 .04-.03.14-.16.14h-1.4c-.14 0-.16-.09-.16-.13q-.02-.76.36-1.42.53-.64 1.26-1.06c.15-.1.21-.21.3-.33q.27-.32.28-.74c.01-.67-.53-1.14-1.18-1.14-.9 0-1.18.7-1.18 1.46H4.2c0-1.17.31-1.92.98-2.36a3.5 3.5 0 0 1 1.83-.44c.88 0 1.58.16 2.2.62q.88.62.88 1.82-.02.74-.43 1.24-.23.3-.86.79z"/></svg>