<svg aria-hidden="true" class="svg-icon iconInternationalSm" width="14" height="14"  viewBox="0 0 14 14"><path  d="M13 7A6 6 0 1 1 1 7a6 6 0 0 1 12 0m-5.99 4.6q.21-.24.46-.91.25-.7.4-1.69H6.13q.14.99.39 1.69.25.67.46.91zM7.97 8a15 15 0 0 0 0-2H6.03a15 15 0 0 0 0 2zm.9 1c-.12.96-.34 1.8-.61 2.43A4.6 4.6 0 0 0 11.14 9zm2.62-1a5 5 0 0 0 0-2H8.97a16 16 0 0 1 0 2zM5.03 8a16 16 0 0 1 0-2H2.51a5 5 0 0 0 0 2zM2.86 9a4.6 4.6 0 0 0 2.88 2.43A9 9 0 0 1 5.13 9zm3.67-5.69q-.25.7-.4 1.69h1.73a9 9 0 0 0-.39-1.69 3 3 0 0 0-.46-.91H7q-.21.24-.46.91M8.87 5h2.27a4.6 4.6 0 0 0-2.88-2.43q.42.97.61 2.43M2.86 5h2.27c.12-.96.34-1.8.61-2.43A4.6 4.6 0 0 0 2.86 5"/></svg>