<svg aria-hidden="true" class="svg-icon iconInternational" width="18" height="18"  viewBox="0 0 18 18"><path  d="M5.8 11a20 20 0 0 1 0-4H3.34a6 6 0 0 0 0 4zm.13 1H3.8a6 6 0 0 0 2.9 2.54q-.52-1.06-.77-2.54m6.27-1h2.46a6 6 0 0 0 0-4H12.2a20 20 0 0 1 0 4m-.13 1a9 9 0 0 1-.76 2.54A6 6 0 0 0 14.2 12zM7.1 11h3.78a17 17 0 0 0 0-4H7.1a17 17 0 0 0 0 4m.16 1c.34 1.8.99 3 1.73 3s1.39-1.2 1.73-3zM5.93 6q.25-1.49.76-2.54A6 6 0 0 0 3.8 6zm6.14 0h2.13a6 6 0 0 0-2.9-2.54q.52 1.06.77 2.54m-4.8 0h3.46C10.4 4.2 9.74 3 9 3S7.61 4.2 7.27 6M9 17A8 8 0 1 1 9 1a8 8 0 0 1 0 16"/></svg>