<svg aria-hidden="true" class="svg-icon iconMicroscope" width="18" height="18"  viewBox="0 0 18 18"><path fill="#D6D9DC" d="M13.5 9.5A3.5 3.5 0 0 0 10 6V4a5.5 5.5 0 0 1 2.6 10.35c.23.87.4 1.65.4 1.65H8l.24-1H5a1 1 0 1 1 0-2h3.84c.22-.57.45-1 .66-1h2q.2.02.41.43A3.5 3.5 0 0 0 13.5 9.5"/><path fill="#9FA6AD" d="M2 17a1 1 0 0 1 1-1h12a1 1 0 0 1 1 1z"/><path fill="#D6D9DC" d="M5 4a1 1 0 0 1 1-1h2a1 1 0 0 1 1 1v4a1 1 0 0 1-1 1H6a1 1 0 0 1-1-1z"/><path fill="#9FA6AD" d="M6 1h2v2H6zm0 8h2v2H6z"/></svg>