<svg aria-hidden="true" class="svg-icon iconPlusOne" width="18" height="18"  viewBox="0 0 18 18"><path fill="#9966CB" d="M7 9h3v2H7v3H5v-3H2V9h3V6h2zm10 6h-2V6.31l-3 .99V5.46l4.76-1.79H17z"/><path fill="#F75D37" d="m2.7 6.95-.19.03a.5.5 0 0 1-.35-.09l-1-1a.5.5 0 0 1 .36-.85q.2 0 .35.14l1 .95a.5.5 0 0 1 0 .71zm6.65 0 .2.03q.19.03.35-.09l1-1a.5.5 0 0 0-.36-.85.5.5 0 0 0-.35.14l-1 .95a.5.5 0 0 0 0 .71q.07.07.16.1m1.15 8.04a.5.5 0 0 0 .36-.14.5.5 0 0 0 0-.7l-1-.96a.5.5 0 0 0-.71 0 .5.5 0 0 0 0 .71l1 1q.15.11.35.1m-9.18-.04.2.03q.19.03.35-.09l1-1a.5.5 0 0 0-.36-.85.5.5 0 0 0-.35.14l-1 .95a.5.5 0 0 0 0 .71q.07.07.16.1" opacity=".7"/><path  d="M6 5a.5.5 0 1 0 0-1 .5.5 0 0 0 0 1M.5 10.5a.5.5 0 1 0 0-1 .5.5 0 0 0 0 1M12 10a.5.5 0 1 1-1 0 .5.5 0 0 1 1 0m-6 6a.5.5 0 1 0 0-1 .5.5 0 0 0 0 1" opacity=".4"/></svg>