<svg aria-hidden="true" class="svg-icon iconSpeechBubbleQuestion" width="18" height="18"  viewBox="0 0 18 18"><path  d="m1 18 3-3h11c1.09 0 2-.91 2-2V4c0-1.09-.91-2-2-2H3a2 2 0 0 0-2 2zm7.96-4.94c-.57-.02-1.03-.43-1.01-1.06s.5-1.04 1.08-1.02c.6.02 1.05.45 1.03 1.08s-.48 1.02-1.1 1m.92-3.68a4 4 0 0 0-.08.65c0 .04-.03.14-.16.14h-1.4c-.14 0-.16-.09-.16-.13q-.02-.76.36-1.42c.2-.36.58-.65 1.06-.93.41-.23.78-.71.78-1.2q0-.42-.26-.74c-.22-.26-.46-.4-.92-.4-.45 0-.83.23-1.02.52-.17.27-.16.55-.16.83v.11H6.2c0-1.17.31-1.92.98-2.36a3.5 3.5 0 0 1 1.83-.44c.88 0 1.58.16 2.2.62q.88.63.88 1.82-.02.74-.43 1.24-.23.3-.86.8l-.48.3q-.31.22-.44.6"/></svg>