<svg aria-hidden="true" class="svg-icon iconStrikethrough" width="18" height="18"  viewBox="0 0 18 18"><path  d="M11.96 6.2a4 4 0 0 0-1.19-.7q-.44-.2-.96-.34a4 4 0 0 0-1.05-.13q-.96 0-1.43.35t-.47.99q0 .36.17.62l.01.01H4.5v-.26q0-.9.33-1.61.33-.7.92-1.18.6-.46 1.4-.7a6.4 6.4 0 0 1 4 .15q1.05.4 1.84.92zM3 8v2h5.02l1.1.32q.58.17.98.37t.62.47a1 1 0 0 1 .22.65q0 1.23-1.91 1.22-.69 0-1.34-.16a8 8 0 0 1-2.13-.9 4 4 0 0 1-.54-.4l-1.02 2q1.04.74 2.35 1.14 1.3.4 2.64.4.88 0 1.66-.18.8-.2 1.4-.62.63-.41.98-1.1.37-.68.37-1.63a3 3 0 0 0-.38-1.58H15V8z"/></svg>