<svg aria-hidden="true" class="svg-icon iconTada" width="18" height="18"  viewBox="0 0 18 18"><path fill="#FF9700" d="M10.39 7.48c-2.91-2.9-5.4-3.73-5.52-3.38l-3.8 11.45c-.14.4-.03.86.27 1.15.3.3.78.38 1.17.22l11.42-3.31c.3-.15-.64-3.22-3.54-6.13" opacity=".4"/><path fill="#FF9700" d="M6.8 11.07a18 18 0 0 1-2.93-3.96l1-3C5.47 6.15 6.65 8 8.25 9.4a22 22 0 0 0 5.59 4.22l-2.86.83a31 31 0 0 1-4.17-3.39M3.6 14.2a4.3 4.3 0 0 1-1.33-2.24l.91-2.74c.5 1.27 1.25 2.43 2.2 3.4q1.44 1.43 3.1 2.57l-2.57.74a9 9 0 0 1-2.31-1.72" opacity=".6"/><path fill="#F75D37" d="M15.85 2.15c.2.2.2.5 0 .7l-4 4a.5.5 0 0 1-.7-.7l4-4c.2-.2.5-.2.7 0"/><path fill="#07C" d="M10 1.5a.5.5 0 0 0-1 0v3a.5.5 0 0 0 1 0zM13.5 8a.5.5 0 0 0 0 1h3a.5.5 0 0 0 0-1z"/><path fill="#07C" d="M7.5 3a.5.5 0 1 0 0-1 .5.5 0 0 0 0 1m5 0a.5.5 0 1 0 0-1 .5.5 0 0 0 0 1M16 5.5a.5.5 0 1 1-1 0 .5.5 0 0 1 1 0m-.5 5.5a.5.5 0 1 0 0-1 .5.5 0 0 0 0 1" opacity=".6"/></svg>