<svg aria-hidden="true" class="svg-icon iconThree" width="18" height="18"  viewBox="0 0 18 18"><path  d="M8.07 9.23h1.2q.87 0 1.28-.43.4-.42.41-1.14 0-.68-.41-1.07a1.6 1.6 0 0 0-1.13-.38q-.65 0-1.08.36-.45.35-.44.92H5.64q0-.89.48-1.6.48-.7 1.34-1.1t1.9-.4q1.81 0 2.84.87a3 3 0 0 1 1.02 2.37q0 .78-.48 1.44a3 3 0 0 1-1.25 1 2.8 2.8 0 0 1 1.43 1.04q.48.69.48 1.62 0 1.52-1.11 2.43-1.1.92-2.92.92-1.7 0-2.8-.9A3 3 0 0 1 5.5 12.8h2.26q0 .64.47 1.05.49.4 1.2.4.8 0 1.25-.41.46-.44.46-1.14 0-1.7-1.87-1.7h-1.2zM17.25 15a1.25 1.25 0 1 1-2.5 0 1.25 1.25 0 0 1 2.5 0" opacity=".2"/><path  d="M6.07 7.83h1.2q.86 0 1.28-.43.4-.44.41-1.14t-.41-1.07a1.6 1.6 0 0 0-1.13-.39q-.65 0-1.08.36-.45.36-.44.93H3.64q0-.9.48-1.6t1.34-1.1 1.9-.4q1.81 0 2.84.86a3 3 0 0 1 1.02 2.38 2.9 2.9 0 0 1-1.73 2.61c.64.23 1.12.81 1.43 1.27q.48.69.48 1.62 0 1.52-1.11 2.43-1.1.92-2.92.92-1.7 0-2.8-.9A3 3 0 0 1 3.5 11.8h2.26q0 .64.47 1.05.49.4 1.2.4.8 0 1.25-.41.46-.44.46-1.14 0-1.7-1.87-1.7h-1.2zM15.25 14a1.25 1.25 0 1 1-2.5 0 1.25 1.25 0 0 1 2.5 0"/></svg>