<svg aria-hidden="true" class="svg-icon iconThreeLg" width="36" height="36"  viewBox="0 0 36 36"><path  d="M14.2 18.53h2.44q1.74 0 2.58-.84.84-.86.84-2.25 0-1.35-.84-2.1-.82-.76-2.28-.76-1.3 0-2.2.7a2.2 2.2 0 0 0-.88 1.82H9.28q0-1.75.97-3.13a6.5 6.5 0 0 1 2.72-2.19A9 9 0 0 1 16.83 9q3.66 0 5.73 1.7a5.7 5.7 0 0 1 2.08 4.68q0 1.54-.97 2.83a6 6 0 0 1-2.53 1.98 5.7 5.7 0 0 1 2.9 2.03q.96 1.35.96 3.2 0 2.98-2.25 4.78-2.23 1.8-5.92 1.8-3.45 0-5.65-1.77A5.7 5.7 0 0 1 9 25.56h4.57q0 1.26.97 2.06.98.8 2.4.8 1.64 0 2.55-.83.94-.85.94-2.23 0-3.36-3.8-3.35H14.2zM33 30a2 2 0 1 1-4 0 2 2 0 0 1 4 0" opacity=".2"/><path  d="M12.03 15.61h2.61q1.74 0 2.58-.85t.84-2.26q0-1.37-.84-2.13-.82-.75-2.28-.76-1.3 0-2.2.72-.88.7-.88 1.82H7.28q0-1.76.97-3.16a6.5 6.5 0 0 1 2.72-2.2A9 9 0 0 1 14.83 6q3.66 0 5.73 1.72a5.8 5.8 0 0 1 2.08 4.71 5.7 5.7 0 0 1-3.5 5.2c1.3.45 2.26 1.6 2.9 2.51q.96 1.36.96 3.22 0 3-2.25 4.83-2.23 1.8-5.92 1.81-3.45 0-5.65-1.78A5.8 5.8 0 0 1 7 23.5h4.57q0 1.27.97 2.08.98.8 2.4.8 1.64 0 2.55-.83a3 3 0 0 0 .94-2.25q0-3.38-3.8-3.38h-2.6zM31 28a2 2 0 1 1-4 0 2 2 0 0 1 4 0"/></svg>