<svg aria-hidden="true" class="svg-icon iconThumbsUp" width="18" height="18"  viewBox="0 0 18 18"><path fill="#FFC166" d="M5 15V9s3.94-5.28 4.2-5.6c.27-.33.64-.46.96-.46q.48.02.84.36c.34.32.48 1.23.44 1.89A3.3 3.3 0 0 1 10.75 7c-.23.31.04.78.49.71 0 0 1.71-.33 2.3-.36s2.71-.13 2.71 1.68c0 1.8-.97 4.52-1.4 5.44s-1.19 2.15-2.11 2.38c-.87.23-1.78.21-2.64-.05z"/><path fill="#07C" d="M1 10.5C1 9.67 1.67 9 2.5 9H4v6H2.5A1.5 1.5 0 0 1 1 13.5z" opacity=".7"/><path  d="M11 .5a.5.5 0 0 0-1 0v1a.5.5 0 0 0 1 0zM6.15 2.15c.2-.2.5-.2.7 0l1 1a.5.5 0 1 1-.7.7l-1-1a.5.5 0 0 1 0-.7m8.7 0c.2.2.2.5 0 .7l-1 1a.5.5 0 0 1-.7-.7l1-1c.2-.2.5-.2.7 0" opacity=".4"/></svg>