<svg aria-hidden="true" class="svg-icon iconTwo" width="18" height="18"  viewBox="0 0 18 18"><path  d="M17.25 15a1.25 1.25 0 1 1-2.5 0 1.25 1.25 0 0 1 2.5 0m-4.29 1h-7.8v-1.55l3.68-3.92Q9.6 9.7 9.96 9.1q.37-.62.37-1.18 0-.75-.38-1.18-.38-.45-1.1-.44-.76 0-1.2.53c-.3.35-.45.64-.45 1.21H4.94c0-.7.16-1.15.49-1.73a3.5 3.5 0 0 1 1.4-1.34q.92-.5 2.06-.5 1.76 0 2.73.85t.97 2.39q0 .84-.43 1.71-.45.88-1.5 2.04l-2.59 2.73h4.9z" opacity=".2"/><path  d="M10.96 15h-7.8v-1.55l3.68-3.92q.75-.82 1.12-1.44c.25-.42.42-.93.42-1.3 0-.4 0-.88-.34-1.27-.26-.3-.71-.54-1.19-.54q-.76 0-1.2.54c-.3.34-.45.94-.45 1.51H2.94c0-.7.16-1.59.49-2.16a3.5 3.5 0 0 1 1.4-1.35q.92-.48 2.06-.49c1.17 0 2.07.4 2.72.95.65.57.98 1.69.98 2.72q0 .84-.43 1.71-.45.88-1.5 2.04l-2.59 2.73h4.9zm4.29-1a1.25 1.25 0 1 1-2.5 0 1.25 1.25 0 0 1 2.5 0"/></svg>