<svg aria-hidden="true" class="svg-icon iconTwoLg" width="36" height="36"  viewBox="0 0 36 36"><path  d="M33 30a2 2 0 1 1-4 0 2 2 0 0 1 4 0m-7 2H10.45v-3.09l7.34-7.82q1.5-1.65 2.23-2.88t.73-2.34q0-1.5-.76-2.37-.77-.87-2.18-.87-1.53 0-2.42 1.06c-.58.7-.87 1.27-.87 2.42H10c0-1.39.33-2.3.98-3.45a7 7 0 0 1 2.8-2.68 8.4 8.4 0 0 1 4.1-.98q3.5 0 5.44 1.68t1.95 4.76q0 1.68-.87 3.42a19 19 0 0 1-3 4.07l-5.15 5.44H26z" opacity=".2"/><path  d="M22 30H6v-2.84l7.79-8.13q1.5-1.65 2.23-2.9a6 6 0 0 0 .84-2.59c0-.79 0-1.76-.69-2.56a3.3 3.3 0 0 0-2.36-1.06q-1.53 0-2.42 1.06c-.58.7-.87 1.9-.87 3.04H6c0-1.39.33-3.19.98-4.34a7 7 0 0 1 2.8-2.7 8.4 8.4 0 0 1 4.1-.98c2.34 0 4.14.78 5.42 1.91 1.3 1.13 1.97 3.38 1.97 5.44a8 8 0 0 1-.87 3.44 19 19 0 0 1-3 4.1l-5.15 5.46H22zm9-2a2 2 0 1 1-4 0 2 2 0 0 1 4 0"/></svg>