<svg aria-hidden="true" class="svg-spot spotAds" width="48" height="48"  viewBox="0 0 48 48"><path  d="M47 38.28c0 .36-.27.72-.68.72H32.68c-.34 0-.68-.36-.68-.72V26.72c0-.36.34-.72.68-.72h13.64c.4 0 .68.36.68.72zM4 14.76c0-.46.35-.76.7-.76h36.6c.35 0 .7.3.7.76v6.48c0 .46-.35.76-.7.76H4.7c-.35 0-.7-.3-.7-.76z" opacity=".2"/><path  d="M29 24a1 1 0 0 1 1-1h15a1 1 0 0 1 1 1v13a1 1 0 0 1-1 1H30a1 1 0 0 1-1-1zm2 1v11h13V25zM8 4a2 2 0 0 0-2 2v3a1 1 0 0 0 1 1h35v10.19a1 1 0 1 0 2 0V6a2 2 0 0 0-2-2zm7 4H8V6h7zm27 0H17V6h25zM8 24a1 1 0 1 0-2 0v18c0 1.1.9 2 2 2h34a2 2 0 0 0 2-2v-1a1 1 0 1 0-2 0v1H8zm10 9a1 1 0 1 0 0 2h8a1 1 0 1 0 0-2zm-8 1a1 1 0 0 1 1-1h4a1 1 0 1 1 0 2h-4a1 1 0 0 1-1-1m1-5a1 1 0 1 0 0 2h15a1 1 0 1 0 0-2zm-1-5a1 1 0 0 1 1-1h15a1 1 0 0 1 1 1v3a1 1 0 0 1-1 1H11a1 1 0 0 1-1-1zm2 1v1h13v-1zM2 11a1 1 0 0 0-1 1v8a1 1 0 0 0 1 1h38a1 1 0 0 0 1-1v-8a1 1 0 0 0-1-1zm1 8v-6h36v6zm34-3a1 1 0 1 1-2 0 1 1 0 0 1 2 0m5 13a1 1 0 1 1-2 0 1 1 0 0 1 2 0m0 4a1 1 0 1 1-2 0 1 1 0 0 1 2 0m-4 0a1 1 0 1 1-2 0 1 1 0 0 1 2 0"/></svg>