<svg aria-hidden="true" class="svg-spot spotAdsXL" width="196" height="196"  viewBox="0 0 196 196"><path  d="M21.57 31.15C47.61 10.02 96.22-3.5 139.05 10.45c37.65 12.25 64.72 98.83 33.96 135.75s-78.79 41.98-107.95 35.98-47.82-59.81-51.7-74.5c-3.9-14.69-4.58-66.14 8.21-76.53M35 57v25h111V57zm126 37h-45v41h45z" opacity=".07"/><path  d="M150 63H43a2 2 0 0 0-2 2v21c0 1.1.9 2 2 2h107a2 2 0 0 0 2-2V65a2 2 0 0 0-2-2m14 37h-39a3 3 0 0 0-3 3v35a3 3 0 0 0 3 3h39a3 3 0 0 0 3-3v-35a3 3 0 0 0-3-3" opacity=".2"/><path  d="m52 16-4-4-4 4 4 4zm-1.95 20A4.05 4.05 0 0 0 46 40.05v9.82A2 2 0 0 0 48 52h105v34.43a2 2 0 1 0 4 0V40.05a4.05 4.05 0 0 0-4.05-4.05zM71 48H50v-7.95l.02-.03.01-.02H71zm82 0H75v-8h77.96l.02.01.02.02zM50 93.77a2 2 0 0 0-4 0v55.18a4.05 4.05 0 0 0 4.05 4.05h102.9a4.05 4.05 0 0 0 4.05-4.05v-3.29a2 2 0 0 0-4 0v3.3l-.01.03h-.03v.01H50.02l-.01-.01-.02-.02zM154 113a3 3 0 1 1-6 0 3 3 0 0 1 6 0m-3 15a3 3 0 1 0 0-6 3 3 0 0 0 0 6m-9-3a3 3 0 1 1-6 0 3 3 0 0 1 6 0m-26-33a2 2 0 0 0-2 2v41c0 1.1.9 2 2 2h45a2 2 0 0 0 2-2V94a2 2 0 0 0-2-2zm2 41V96h41v37zm-38-7c0-1.1.9-2 2-2h23a2 2 0 1 1 0 4H82a2 2 0 0 1-2-2m-20-2a2 2 0 1 0 0 4h15a2 2 0 1 0 0-4zm-2-9c0-1.1.9-2 2-2h45a2 2 0 1 1 0 4H60a2 2 0 0 1-2-2m2-20a2 2 0 0 0-2 2v9c0 1.1.9 2 2 2h45a2 2 0 0 0 2-2v-9a2 2 0 0 0-2-2zm2 9v-5h41v5zm71-31a3 3 0 1 0 0-6 3 3 0 0 0 0 6M33 57c0-1.1.9-2 2-2h111a2 2 0 0 1 2 2v25a2 2 0 0 1-2 2H35a2 2 0 0 1-2-2zm4 2v21h107V59zM14 88a2 2 0 0 1 2 2v4h4a2 2 0 1 1 0 4h-4v4a2 2 0 1 1-4 0v-4H8a2 2 0 1 1 0-4h4v-4c0-1.1.9-2 2-2m159.5 54 8.5 8.5-8.5 8.5-8.5-8.5zm-2.83 8.5 2.83 2.83 2.83-2.83-2.83-2.83z"/></svg>