<svg aria-hidden="true" class="svg-spot spotAnswerLg" width="96" height="96"  viewBox="0 0 96 96"><path  d="M73 76.06H20.63A10.73 10.73 0 0 1 10 65.44V19.15c0-5.84 2.4-9.15 8.23-9.15h64.15C88.16 10 93 14.71 93 20.5V96zm-.96-10.94L53.65 20.08h-9.52L26.97 65.13H37.8l3.45-9.51H59.8l3.66 9.5z" opacity=".2"/><path  d="M74.78 70.06H15.13c-2.03 0-3.97-.8-5.4-2.23C8.01 66.1 7 64.19 7 62.5V14.63C7 10.6 10.76 7 15.13 7h63.75c2.02 0 3.96.8 5.39 2.23 1.7 1.7 2.73 3.69 2.73 5.4V81.9zM90 14.63c0-2.82-1.62-5.53-3.61-7.52-2-2-4.7-3.11-7.51-3.11H15.13C9.28 4 4 8.78 4 14.63V62.5c0 2.82 1.62 5.46 3.61 7.45 2 2 4.7 3.11 7.52 3.11h58.43L90 89zM72.95 63 53.52 15H40.45L21.79 63h15.4l3.46-9.38h12.59L56.9 63zm-34.4-12.38L35.1 60h-8.93L42.5 18h9l17 42h-9.55l-3.66-9.38zm14.03-7.07-5.8-15.51-5.62 15.51zm-4.32-3h-2.82l1.39-3.83z"/></svg>