<svg aria-hidden="true" class="svg-spot spotAstronaut" width="48" height="48"  viewBox="0 0 48 48"><path  d="M39.5 12a.5.5 0 0 1-.5-.5.5.5 0 0 0-.5-.5h-6.1c-.77 0-1.4.63-1.4 1.4v6.2c0 .77.63 1.4 1.4 1.4H38a1 1 0 0 1 1 1 1 1 0 0 0 1 1h3.6c.77 0 1.4-.63 1.4-1.4v-7.2c0-.77-.63-1.4-1.4-1.4z" opacity=".2"/><path  d="M15.03 5.84c-2.17 0-3.66.42-4.44 1.59-.37.55-.5 1.17-.55 1.73q-.06.68-.04 1.39v1.8c0 .4.2.7.38.89q.29.25.54.37c.34.15.75.25 1.15.32.83.15 1.9.22 2.93.22s2.1-.07 2.93-.22q.62-.1 1.15-.32.26-.12.54-.37c.18-.19.38-.49.38-.9V10.5q0-.67-.03-1.32a4 4 0 0 0-.52-1.73c-.76-1.18-2.25-1.6-4.42-1.6M12 10.5q0-.66.03-1.15.06-.59.22-.81c.18-.26.7-.7 2.78-.7s2.58.44 2.74.69q.16.21.21.8.03.47.02 1.07v1.47l-.43.1c-.67.12-1.6.18-2.57.18a16 16 0 0 1-3-.28zM11 21a1 1 0 0 1 1-1h6a1 1 0 1 1 0 2h-6a1 1 0 0 1-1-1m4.03-19c-3.82 0-6.2 1.12-7.57 3-1.31 1.8-1.51 4.08-1.51 6v3.94A4.45 4.45 0 0 0 2 19.5v11C2 32.02 3.13 34 5.47 34q.87 0 1.53-.33V44a1 1 0 0 0 1 1h5a1 1 0 0 0 1-1V32h2v12a1 1 0 0 0 1 1h5a1 1 0 0 0 1-1V23.3l2.87 2.74 1.97 1.86.16.14V44a1 1 0 1 0 2 0V28.79h.1c.8 0 1.65-.28 2.27-.9.62-.64.88-1.52.88-2.32s-.26-1.66-.87-2.3L30 20.78V19h6c0 1.1.9 2 2 2h3a3 3 0 0 0 3-3v-6a3 3 0 0 0-3-3h-3.09c-.2-.58-.76-1-1.41-1H30v-.17a3 3 0 1 0-2 0v10.83l-1.24-1.32h-.01l-.34-.36q-.72-.75-1.36-1.3-.45-.38-1.02-.63V11c0-1.9-.18-4.2-1.47-6-1.35-1.88-3.71-3-7.53-3m-7.08 9c0-1.86.21-3.57 1.13-4.83C9.94 5 11.6 4 15.03 4s5.06.99 5.9 2.17c.9 1.25 1.1 2.96 1.1 4.83v4.41q-.53.17-1.64.32c-1.45.18-3.41.28-5.4.28s-3.95-.1-5.4-.28q-1.12-.14-1.64-.32zM12 39.34a3.4 3.4 0 0 0-3 0V36h3zm-3 3.31c0-.98.71-1.65 1.5-1.65s1.5.67 1.5 1.65V43H9zm9 .35v-.35c0-.98.71-1.65 1.5-1.65s1.5.67 1.5 1.65V43zm1.5-4a3.4 3.4 0 0 0-1.5.34V36h3v3.34a3.4 3.4 0 0 0-1.5-.34M9 34v-8h12v8h-3v-3a1 1 0 0 0-1-1h-4a1 1 0 0 0-1 1v3zm-2-3.5c0 .69-.56 1.5-1.53 1.5C4.53 32 4 31.23 4 30.5V29h3zM7 27H4v-7.5c0-.88.32-1.51.8-1.93a3 3 0 0 1 1.67-.69l.08.06q.38.25.78.37c.53.17 1.23.3 2 .4 1.57.2 3.62.3 5.66.3 2.03 0 4.09-.1 5.65-.3.78-.1 1.48-.23 2.01-.4q.39-.11.75-.35l.4.27c.32.27.66.62 1.13 1.1v.01l.38.39L28 21.56v.92l-1.45 1.44-3.64-3.46c-.25-.24-.55-.46-.91-.46a1 1 0 0 0-1 1v3H9v-3a1 1 0 1 0-2 0zm23-.22v-3.1l.93.98h.01c.17.18.31.51.31.91s-.14.73-.3.91a1.2 1.2 0 0 1-.95.3M29 4a1 1 0 1 1 0 2 1 1 0 0 1 0-2m1 13v-7h6v7zm8 2v-8h3a1 1 0 0 1 1 1v6a1 1 0 0 1-1 1z"/></svg>