<svg aria-hidden="true" class="svg-spot spotAwardLg" width="96" height="96"  viewBox="0 0 96 96"><path  d="M60.76 7.6c1.96 1.5 3.82 3.32 4.96 5.53a11.2 11.2 0 0 1 .58 8.16 37 37 0 0 1 5.22 3.78c-.29-3.05.9-5.97 2.74-8.37.61-.79 1.21-1.42 1.66-1.86.48-.47.99-1.03 1.7-1.05.98-.01 1.43.85 1.82 1.6q.47.89 1.06 2.38a18 18 0 0 1 1.3 7.25 10.8 10.8 0 0 1-3.84 7.38 36 36 0 0 1 2.84 5.14 13 13 0 0 1 4.82-5.7q1.34-.91 2.82-1.57c.3-.13.6-.24.94-.22.73.05 1.22.6 1.42 1.26.33 1.08.41 2.25.46 3.37.09 2-.07 4.72-1.12 7.1-1.06 2.4-2.77 4-4.18 4.99a13 13 0 0 1-2.25 1.28q.3 2.5.25 5.09a13 13 0 0 1 6.52-2.94 15 15 0 0 1 3.53-.25c.74.05 1.1.57 1.22.76.32.56.19 1.24.07 1.84-.61 3.1-2.03 6.26-4.34 8.45a11.6 11.6 0 0 1-6.19 2.9c-1.16.19-2.14.2-2.72.19a36 36 0 0 1-1.98 4.7c2.38-.76 4.89-.67 7.28-.03.97.26 1.78.58 2.35.82.74.32 1.59.63 1.74 1.53.1.52-.1 1.02-.33 1.48a11 11 0 0 1-6.55 5.5c-3.46 1.07-7.48.64-10.94-.31q-1.52 1.55-3.21 2.91c2.47.38 4.58 1.7 6.03 2.86.78.62 1.4 1.22 1.84 1.67.61.64 1.33 1.32.95 2.3-.17.44-.55.77-.92 1.06a11.8 11.8 0 0 1-8.3 2.34c-3.49-.39-6.83-2.32-9.48-4.56a36 36 0 0 1-6 1.72 1.5 1.5 0 0 1-.57-2.94 33.4 33.4 0 0 0 27-32.7A33.2 33.2 0 0 0 63.98 23.4c-.86-.48-1.76-.9-2.62-1.39a15.5 15.5 0 0 1-5.2-4.9c-1.53-2.34-1.58-5.08-1.33-7.07.12-1.02.33-1.9.51-2.53.22-.76.45-1.68 1.3-1.94.72-.23 1.38.2 1.98.56.55.33 1.31.83 2.15 1.47m-2.78 1.69c-.43 2.03-.5 4.37.68 6.18a12.4 12.4 0 0 0 4.93 4.33 8 8 0 0 0-.55-5.31c-1.13-2.16-3.07-3.85-5.06-5.2m19.28 8.5c-1.42 1.6-2.61 3.57-2.77 5.74-.15 2.22.7 4.4 1.92 6.22a7.7 7.7 0 0 0 2.4-4.94c.17-2.4-.58-4.85-1.55-7.03m6.35 26.93a9.4 9.4 0 0 0 3.78-4.16c.93-2.1 1.03-4.53.8-6.8-1.9 1.12-3.63 2.64-4.52 4.7-.87 1.97-.66 4.25-.06 6.26m-.33 16.34a9 9 0 0 0 5.62-2.24c1.62-1.54 2.6-3.68 3.2-5.81-2.19.21-4.47.86-6.13 2.36-1.56 1.48-2.36 3.6-2.7 5.69m-6.9 14.26c2.38.41 4.96.62 7.3-.1a8.3 8.3 0 0 0 4.23-3.13c-2.2-.83-4.56-1.16-6.84-.47-1.94.6-3.5 2.08-4.69 3.7m-12.47 9.85c1.9 1.32 4.1 2.5 6.43 2.77a9 9 0 0 0 5.26-1.16c-1.63-1.53-3.65-2.9-5.92-3.16-2.03-.22-4.05.52-5.77 1.55M48.79 25.08a1.66 1.66 0 1 0 0-3.32 1.66 1.66 0 0 0 0 3.32m-3.21-1.45a1.66 1.66 0 1 1-3.32 0 1.66 1.66 0 0 1 3.32 0m-6.46 2.7a1.66 1.66 0 1 0 0-3.32 1.66 1.66 0 0 0 0 3.32m-2.95.23a1.66 1.66 0 1 1-3.32 0 1.66 1.66 0 0 1 3.32 0M30.3 30.8a1.66 1.66 0 1 0 0-3.31 1.66 1.66 0 0 0 0 3.32m-1.93 1.58a1.66 1.66 0 1 1-3.32 0 1.66 1.66 0 0 1 3.32 0m22.85 1.63a3.4 3.4 0 0 0-3.2-2.2c-1.31 0-2.64.77-3.1 2.3L41.6 44H31.57c-1.66 0-2.8 1.1-3.2 2.35a3.35 3.35 0 0 0 1.12 3.7l8.13 6.25-3 9.6v.02a3.33 3.33 0 0 0 5.12 3.67l8.43-5.95 8.27 5.78.02.02c2.63 1.77 6-.62 5.1-3.69l-.01-.02-3-9.6 8.13-6.25.08-.06A3.3 3.3 0 0 0 64.6 44H54.56l-3.31-9.9zm-3.44.98q.05-.14.09-.15a.3.3 0 0 1 .15-.04q.12 0 .23.07.08.05.17.22l3.64 10.88c.2.6.77 1.02 1.42 1.02H64.6q.14.01.2.05a.3.3 0 0 1 .11.3q0 .06-.11.2l-8.92 6.85a1.5 1.5 0 0 0-.51 1.63l3.31 10.58q.04.16 0 .22a.3.3 0 0 1-.1.15.3.3 0 0 1-.18.06c-.06 0-.14 0-.26-.09l-9.11-6.37a1.5 1.5 0 0 0-1.73 0l-9.28 6.54a.4.4 0 0 1-.25.09.3.3 0 0 1-.29-.2.4.4 0 0 1 0-.23L40.8 56.2a1.5 1.5 0 0 0-.52-1.64l-8.96-6.89a.2.2 0 0 1-.1-.14.5.5 0 0 1 .14-.47q.04-.05.2-.06H42.7a1.5 1.5 0 0 0 1.42-1.02l3.65-10.93.01-.03zM26.7 74.33a1.66 1.66 0 1 0 0-3.32 1.66 1.66 0 0 0 0 3.32m-1.4-5.48a1.66 1.66 0 1 1-3.32 0 1.66 1.66 0 0 1 3.32 0m-4.1-2.6a1.66 1.66 0 1 0 0-3.32 1.66 1.66 0 0 0 0 3.32m0-6.41a1.66 1.66 0 1 1-3.32 0 1.66 1.66 0 0 1 3.32 0m-2.5-3.23a1.66 1.66 0 1 0 0-3.32 1.66 1.66 0 0 0 0 3.32m1.67-6.51a1.66 1.66 0 1 1-3.32 0 1.66 1.66 0 0 1 3.32 0m-.84-3.25a1.66 1.66 0 1 0 0-3.32 1.66 1.66 0 0 0 0 3.32m3.32-6.19a1.66 1.66 0 1 1-3.32 0 1.66 1.66 0 0 1 3.32 0m.65-2.82a1.66 1.66 0 1 0 0-3.32 1.66 1.66 0 0 0 0 3.32M55.42 24a1.66 1.66 0 1 1-3.32 0 1.66 1.66 0 0 1 3.32 0m3.04 3.09a1.66 1.66 0 1 0 0-3.32 1.66 1.66 0 0 0 0 3.32m6.13.62a1.66 1.66 0 1 1-3.32 0 1.66 1.66 0 0 1 3.32 0m2.19 4.51a1.66 1.66 0 1 0 0-3.32 1.66 1.66 0 0 0 0 3.32m5.17 1.86a1.66 1.66 0 1 1-3.32 0 1.66 1.66 0 0 1 3.32 0m1.1 5.68a1.66 1.66 0 1 0 0-3.32 1.66 1.66 0 0 0 0 3.32m3.75 2.89a1.66 1.66 0 1 1-3.32 0 1.66 1.66 0 0 1 3.32 0m-.48 6.38a1.66 1.66 0 1 0 0-3.32 1.66 1.66 0 0 0 0 3.32m2.12 3.32a1.66 1.66 0 1 1-3.32 0 1.66 1.66 0 0 1 3.32 0m-2.02 6.71a1.66 1.66 0 1 0 0-3.32 1.66 1.66 0 0 0 0 3.32m.41 3.07a1.66 1.66 0 1 1-3.32 0 1.66 1.66 0 0 1 3.32 0m-3.75 6.09a1.66 1.66 0 1 0 0-3.32 1.66 1.66 0 0 0 0 3.32m-1.05 2.53a1.66 1.66 0 1 1-3.32 0 1.66 1.66 0 0 1 3.32 0M66.88 76a1.66 1.66 0 1 0 0-3.32 1.66 1.66 0 0 0 0 3.32m-2.31 1.21a1.66 1.66 0 1 1-3.32 0 1.66 1.66 0 0 1 3.32 0m-6.09 3.85a1.66 1.66 0 1 0 0-3.32 1.66 1.66 0 0 0 0 3.32m-2.92-.16a1.66 1.66 0 1 1-3.32 0 1.66 1.66 0 0 1 3.32 0m-6.54 2.3a1.66 1.66 0 1 0 0-3.33 1.66 1.66 0 0 0 0 3.32m-3.33-1.9a1.66 1.66 0 1 1-3.32 0 1.66 1.66 0 0 1 3.32 0m-6.55.77a1.66 1.66 0 1 0 0-3.32 1.66 1.66 0 0 0 0 3.32m-2.87-3.62a1.66 1.66 0 1 1-3.32 0 1.66 1.66 0 0 1 3.32 0m-6.19-.7a1.66 1.66 0 1 0 0-3.32 1.66 1.66 0 0 0 0 3.32M35.42 7.6c-1.96 1.5-3.83 3.32-4.96 5.53a11.2 11.2 0 0 0-.58 8.16 37 37 0 0 0-5.23 3.78c.3-3.05-.88-5.97-2.73-8.37a18 18 0 0 0-1.66-1.86c-.48-.47-.99-1.03-1.7-1.05-.98-.01-1.43.85-1.82 1.6-.3.58-.69 1.4-1.06 2.38a18 18 0 0 0-1.3 7.25c.2 2.88 1.67 5.52 3.84 7.38a36 36 0 0 0-2.84 5.14 13 13 0 0 0-4.82-5.7q-1.34-.91-2.82-1.57c-.3-.13-.6-.24-.94-.22-.73.05-1.22.6-1.42 1.26a14 14 0 0 0-.46 3.37c-.1 2 .07 4.72 1.12 7.1 1.05 2.4 2.77 4 4.18 4.99a13 13 0 0 0 2.25 1.28q-.3 2.5-.25 5.09A13 13 0 0 0 5.7 50.2a15 15 0 0 0-3.53-.25 1.5 1.5 0 0 0-1.22.76c-.32.56-.19 1.24-.07 1.84.61 3.1 2.03 6.26 4.34 8.45a11.6 11.6 0 0 0 6.18 2.9c1.17.19 2.15.2 2.72.19q.84 2.44 1.99 4.7a13 13 0 0 0-7.28-.03c-.97.26-1.78.58-2.35.82-.74.32-1.59.63-1.74 1.53-.1.52.1 1.02.33 1.48a11 11 0 0 0 6.55 5.5c3.46 1.07 7.48.64 10.94-.31q1.51 1.55 3.2 2.91c-2.47.38-4.57 1.7-6.03 2.86-.77.62-1.4 1.22-1.83 1.67-.62.64-1.33 1.32-.95 2.3.17.44.55.77.92 1.06a11.8 11.8 0 0 0 8.3 2.34c3.48-.39 6.83-2.32 9.48-4.56q2.88 1.11 6 1.72a1.5 1.5 0 0 0 .57-2.94 33.4 33.4 0 0 1-27.01-32.7 33.2 33.2 0 0 1 17-29.04c.86-.48 1.76-.9 2.62-1.39 2.08-1.2 3.88-2.9 5.2-4.9 1.53-2.34 1.58-5.08 1.33-7.07-.12-1.02-.33-1.9-.51-2.53-.22-.76-.45-1.68-1.3-1.94-.73-.23-1.38.2-1.98.56-.55.33-1.32.83-2.15 1.47m2.78 1.69c.43 2.03.5 4.37-.68 6.18a12.4 12.4 0 0 1-4.93 4.33 8 8 0 0 1 .55-5.31c1.13-2.16 3.07-3.85 5.06-5.2m-19.28 8.5c1.42 1.6 2.61 3.57 2.76 5.74.16 2.22-.7 4.4-1.91 6.22a7.7 7.7 0 0 1-2.4-4.94c-.17-2.4.58-4.85 1.55-7.03m-6.36 26.93a9.4 9.4 0 0 1-3.78-4.16c-.92-2.1-1.02-4.53-.8-6.8 1.9 1.12 3.64 2.64 4.53 4.7.87 1.97.66 4.25.05 6.26m.34 16.34a9 9 0 0 1-5.62-2.24c-1.62-1.54-2.6-3.68-3.2-5.81 2.19.21 4.46.86 6.13 2.36 1.56 1.48 2.36 3.6 2.7 5.69m6.9 14.26c-2.39.41-4.96.62-7.3-.1a8.3 8.3 0 0 1-4.23-3.13c2.2-.83 4.56-1.16 6.83-.47 1.95.6 3.51 2.08 4.7 3.7m12.47 9.85c-1.9 1.32-4.1 2.5-6.43 2.77a9 9 0 0 1-5.26-1.16c1.63-1.53 3.65-2.9 5.92-3.16 2.03-.22 4.05.52 5.77 1.55"/></svg>