<svg aria-hidden="true" class="svg-spot spotBellLg" width="96" height="96"  viewBox="0 0 96 96"><path  d="M22.97 6.65a2.37 2.37 0 0 1 3.15 1.16l4.01 8.68a2.38 2.38 0 0 1-4.3 2L21.8 9.8a2.37 2.37 0 0 1 1.16-3.15M68.9 89.6c-.1 3.04-3.41 4.14-6.16 2.85L10.9 68.28c-2.9-1.36-4.1-4.84-1.6-6.85.9-.72 2-1.42 3.32-2 3.8-1.64 7.12-6.79 11-12.77 1.41-2.2 2.9-4.52 4.53-6.81 12.17-17.21 29.82-16.87 29.82-16.87a4.85 4.85 0 0 1 6.57-2.54c2.43 1.13 3.55 3.92 2.27 6.66 0 0 11.93 13.46 6.56 33.84-.72 2.71-1.53 5.34-2.3 7.84-2.1 6.85-3.91 12.7-2.72 16.65.47 1.53.6 2.94.56 4.17m-57-72.97a2.38 2.38 0 0 0-3.05 3.64l8.29 6.94a2.37 2.37 0 1 0 3.05-3.64zm3.94 18.92a2.37 2.37 0 0 1-2.43 2.32l-9.75-.23a2.38 2.38 0 0 1 .1-4.75l9.76.23a2.37 2.37 0 0 1 2.32 2.43m65.28 43.53a2.37 2.37 0 1 0 3.2-3.52l-7.1-6.42a2.37 2.37 0 1 0-3.18 3.52zM91.34 64.2a2.4 2.4 0 0 1-2.94 1.62l-10.38-3a2.37 2.37 0 1 1 1.33-4.57l10.37 3.01a2.4 2.4 0 0 1 1.62 2.94M79.96 47.56a2.38 2.38 0 0 0 1.55 4.49l9.05-3.14A2.37 2.37 0 1 0 89 44.42z" opacity=".2"/><path  d="M50.43 23.79a1.5 1.5 0 0 1-.97 1.89A36 36 0 0 0 45.93 27a1.5 1.5 0 0 1-1.22-2.75q1.94-.84 3.83-1.43a1.5 1.5 0 0 1 1.89.97m-8.96 3.97a1.5 1.5 0 0 1-.35 2.09c-1.08.76-3.1 2.54-4.33 3.73a35 35 0 0 0-7.07 9.97 1.5 1.5 0 0 1-2.69-1.35 38 38 0 0 1 7.68-10.78 51 51 0 0 1 4.67-4.02 1.5 1.5 0 0 1 2.1.36M55.2 15.04l.16-.24a6.3 6.3 0 0 1 7.94-2.19 6.2 6.2 0 0 1 3.25 7.74l.16.22.44.6.16.23q1.5 2.1 2.89 4.87c4.1 8.28 5.55 17.94 2.75 28.59-.37 1.38-.77 2.79-1.26 4.42l-.61 2.04c-3.52 11.61-4.06 13.98-3.26 16.87l.21.74c.82 2.96.63 5.73-.2 8.17-.61 1.83-2.65 2.55-4.37 1.75L4.93 61.55c-1.81-.84-2.53-3.03-1.36-4.68a15.5 15.5 0 0 1 6.58-5.28l.23-.1c1.33-.64 2.72-1.87 4.27-3.73l.09-.12c2.07-2.56 9.33-13.68 9.64-14.16l.67-.96a43 43 0 0 1 9.61-9.86 40 40 0 0 1 19.27-7.53zM63.46 20c.92-1.96.27-3.87-1.44-4.67l-.18-.08c-1.7-.68-3.52.05-4.39 1.9l-.07.13a1.5 1.5 0 0 1-1.32.74h-.29q-.57 0-1.56.1-2.05.19-4.48.77a37 37 0 0 0-13.3 6.18 40 40 0 0 0-9.58 10.1c.23-.34-7.78 11.94-9.9 14.5l-.32.38c-1.8 2.1-3.5 3.52-5.3 4.3l-.4.18a12.5 12.5 0 0 0-4.92 4.08q-.08.09.18.23l58.53 27.3c.17.07.25.04.26 0 .68-1.99.8-4.27.06-6.74l-.09-.3c-.61-2.27-.44-5.04.38-8.66a73 73 0 0 1 1.14-4.3l.27-.94c.25-.85 1-3.3 1.44-4.7l.78-2.6q.46-1.55.83-2.9l.25-.9c2.6-9.9 1.27-18.83-2.54-26.5a34 34 0 0 0-3.5-5.62l-.16-.18-.14-.17a1.5 1.5 0 0 1-.24-1.63M39.4 81.66a1.5 1.5 0 0 1 .67 2 5.5 5.5 0 0 0-.57 2.45c0 3 2.38 5.39 5.25 5.39a5.3 5.3 0 0 0 4.86-3.32 1.5 1.5 0 0 1 2.78 1.12 8.3 8.3 0 0 1-7.64 5.2 8.3 8.3 0 0 1-8.25-8.39c0-1.35.32-2.64.88-3.78a1.5 1.5 0 0 1 2.02-.67"/></svg>