<svg aria-hidden="true" class="svg-spot spotCalendarXL" width="196" height="196"  viewBox="0 0 196 196"><path  d="M31.11 57.3c-17.39 20.92-18.87 69.39-9.82 88.39 9.04 19 29.25 35.53 45.11 36.05l3.01.11c17.56.68 55.3 2.13 78.03-18.42 24.13-21.82 30.93-45.38 30.84-93.33-.1-43.95-33.27-45.84-67.54-47.8q-4.67-.26-9.35-.57C64.08 19.2 48.5 36.4 31.11 57.3M40 57h114v19h3a3 3 0 0 1 3 3v66a3 3 0 0 1-3 3H49a3 3 0 0 1-3-3v-3h-6z" opacity=".07"/><path  d="M46 79a3 3 0 0 1 3-3h108a3 3 0 0 1 3 3v66a3 3 0 0 1-3 3H49a3 3 0 0 1-3-3z" opacity=".2"/><path  d="M175 43a2 2 0 1 0-4 0v4h-4a2 2 0 1 0 0 4h4v4a2 2 0 1 0 4 0v-4h4a2 2 0 1 0 0-4h-4zM24 142l9 9-9 9-9-9zm-3 9 3 3 3-3-3-3zm16 13 4 4-4 4-4-4zm35-80.67A3.33 3.33 0 0 1 75.33 80h13.34A3.33 3.33 0 0 1 92 83.33v13.34a3.33 3.33 0 0 1-3.33 3.33H75.33A3.33 3.33 0 0 1 72 96.67zm4 .67v12h12V84zm27.33-4a3.33 3.33 0 0 0-3.33 3.33v13.34a3.33 3.33 0 0 0 3.33 3.33h13.34a3.33 3.33 0 0 0 3.33-3.33V83.33a3.33 3.33 0 0 0-3.33-3.33zm.67 16V84h12v12zm23-12.67a3.33 3.33 0 0 1 3.33-3.33h13.34a3.33 3.33 0 0 1 3.33 3.33v13.34a3.33 3.33 0 0 1-3.33 3.33h-13.34a3.33 3.33 0 0 1-3.33-3.33zm4 .67v12h12V84zm-54.67 26a3.33 3.33 0 0 0-3.33 3.33v13.34a3.33 3.33 0 0 0 3.33 3.33h13.34a3.33 3.33 0 0 0 3.33-3.33v-13.34a3.33 3.33 0 0 0-3.33-3.33zm.67 16v-12h12v12zm-30-12.67a3.33 3.33 0 0 1 3.33-3.33h13.34a3.33 3.33 0 0 1 3.33 3.33v13.34a3.33 3.33 0 0 1-3.33 3.33H50.33a3.33 3.33 0 0 1-3.33-3.33zm4 .67v12h12v-12zm51.33-4a3.33 3.33 0 0 0-3.33 3.33v13.34a3.33 3.33 0 0 0 3.33 3.33h13.34a3.33 3.33 0 0 0 3.33-3.33v-13.34a3.33 3.33 0 0 0-3.33-3.33zm.67 16v-12h12v12zM60 90.5a2.5 2.5 0 1 1-5 0 2.5 2.5 0 0 1 5 0m76.5 32.5a2.5 2.5 0 1 0 0-5 2.5 2.5 0 0 0 0 5M43 55a5 5 0 0 0-5 5v79a5 5 0 0 0 5 5h108a5 5 0 0 0 5-5V60a5 5 0 0 0-5-5h-19v-6a2 2 0 1 0-4 0v6h-28v-6a2 2 0 1 0-4 0v6H66v-6a2 2 0 1 0-4 0v6zm85 4v4a2 2 0 1 0 4 0v-4h19a1 1 0 0 1 1 1v8H42v-8a1 1 0 0 1 1-1h19v4a2 2 0 1 0 4 0v-4h30v4a2 2 0 1 0 4 0v-4zm-86 80V72h110v67a1 1 0 0 1-1 1H43a1 1 0 0 1-1-1"/></svg>