<svg aria-hidden="true" class="svg-spot spotClockXL" width="196" height="196"  viewBox="0 0 196 196"><path  d="M86.73 5.43c-8.26 1.43-33.98 12.56-47.05 25.55a198 198 0 0 1-3.76 3.6C22.9 46.82-1.46 69.73 3.23 111.73c5.2 46.53 23.77 60.98 51.21 71.38s80.53 17.88 116.62-11.13c36.08-29 19.4-133.92-15.28-151.52S95 4 86.73 5.43M98 162a64 64 0 1 1 0-128 64 64 0 0 1 0 128" opacity=".07"/><path  d="M102 157a53 53 0 1 0 0-106 53 53 0 0 0 0 106" opacity=".2"/><path  d="m156 19-4-4-4 4 4 4zm-47.32 54.12a2 2 0 0 1 1.2 2.56L103.66 93a9 9 0 1 1-13.34 11.7l-23.14 6.89a2 2 0 1 1-1.14-3.84l23-6.84q-.03-.45-.04-.91a9 9 0 0 1 11.04-8.77l6.08-16.9a2 2 0 0 1 2.56-1.21M98 95a5 5 0 1 0 0 10 5 5 0 0 0 0-10m0-43a2 2 0 0 1 2 2v7a2 2 0 1 1-4 0v-7c0-1.1.9-2 2-2m2 83a2 2 0 1 0-4 0v7a2 2 0 1 0 4 0zm44-37a2 2 0 0 1-2 2h-7a2 2 0 1 1 0-4h7a2 2 0 0 1 2 2m-83 2a2 2 0 1 0 0-4h-7a2 2 0 1 0 0 4zm69.26 30.26a2 2 0 0 1-2.82 0l-4.87-4.87a2 2 0 1 1 2.82-2.82l4.87 4.87a2 2 0 0 1 0 2.82M70.59 73.41a2 2 0 1 0 2.82-2.82l-4.95-4.95a2 2 0 0 0-2.82 2.82zm-5 57a2 2 0 0 1 0-2.82l4.95-4.95a2 2 0 0 1 2.82 2.82l-4.95 4.95a2 2 0 0 1-2.82 0m57-59.82a2 2 0 0 0 2.82 2.82l4.95-4.95a2 2 0 0 0-2.82-2.82zM98 43a55 55 0 1 0 0 110 55 55 0 0 0 0-110M47 98a51 51 0 1 1 102 0 51 51 0 0 1-102 0m51-64a64 64 0 1 0 0 128 64 64 0 0 0 0-128M38 98a60 60 0 1 1 120 0 60 60 0 0 1-120 0m130.5 69 8.5 8.5-8.5 8.5-8.5-8.5zm-2.83 8.5 2.83 2.83 2.83-2.83-2.83-2.83zM18 147a2 2 0 0 1 2 2v4h4a2 2 0 1 1 0 4h-4v4a2 2 0 1 1-4 0v-4h-4a2 2 0 1 1 0-4h4v-4c0-1.1.9-2 2-2"/></svg>