<svg aria-hidden="true" class="svg-spot spotCollectiveLg" width="96" height="96"  viewBox="0 0 96 96"><path  d="M50.5 15a5.5 5.5 0 1 0 0-11 5.5 5.5 0 0 0 0 11M27 34.5a2.5 2.5 0 0 1 2.5-2.5h45a2.5 2.5 0 0 1 2.5 2.5V73a2 2 0 0 1-3.2 1.6l-8.13-6.1a2.5 2.5 0 0 0-1.5-.5H29.5a2.5 2.5 0 0 1-2.5-2.5zm-12 14a5.5 5.5 0 1 1-11 0 5.5 5.5 0 0 1 11 0M50.5 96a5.5 5.5 0 1 0 0-11 5.5 5.5 0 0 0 0 11M96 48.5a5.5 5.5 0 1 1-11 0 5.5 5.5 0 0 1 11 0" opacity=".2"/><path  d="M41 7a7 7 0 1 1 14 0 7 7 0 0 1-14 0m7-4a4 4 0 1 0 0 8 4 4 0 0 0 0-8M0 47a7 7 0 1 1 14 0 7 7 0 0 1-14 0m7-4a4 4 0 1 0 0 8 4 4 0 0 0 0-8m34 46a7 7 0 1 1 14 0 7 7 0 0 1-14 0m7-4a4 4 0 1 0 0 8 4 4 0 0 0 0-8m40-45a7 7 0 1 0 0 14 7 7 0 0 0 0-14m-4 7a4 4 0 1 1 8 0 4 4 0 0 1-8 0m-44.85-5.96a1.5 1.5 0 0 1-.19 2.11L34.34 47l4.62 3.85a1.5 1.5 0 1 1-1.92 2.3l-4.83-4.03a2.77 2.77 0 0 1 0-4.24l4.83-4.03a1.5 1.5 0 0 1 2.11.19m15.89 2.11a1.5 1.5 0 1 1 1.92-2.3l4.83 4.03a2.77 2.77 0 0 1 0 4.24l-4.83 4.03a1.5 1.5 0 0 1-1.92-2.3L59.66 47zm-6.85-6.64c.82.1 1.4.85 1.3 1.68l-2 16a1.5 1.5 0 1 1-2.98-.38l2-16c.1-.82.85-1.4 1.68-1.3M25 26a4 4 0 0 0-4 4v31a4 4 0 0 0 4 4h34.67a1 1 0 0 1 .6.2l8.13 6.1a3.5 3.5 0 0 0 5.6-2.8V30a4 4 0 0 0-4-4zm-1 4a1 1 0 0 1 1-1h45a1 1 0 0 1 1 1v38.5a.5.5 0 0 1-.8.4l-8.13-6.1a4 4 0 0 0-2.4-.8H25a1 1 0 0 1-1-1zM37.43 8.96a1.5 1.5 0 1 0-.71-2.92A43.3 43.3 0 0 0 5.6 35.66a1.5 1.5 0 1 0 2.88.86A40.3 40.3 0 0 1 37.43 8.96M59.34 6.6a1.5 1.5 0 0 0-.86 2.88 40.3 40.3 0 0 1 27.04 27.04 1.5 1.5 0 1 0 2.88-.86A43.3 43.3 0 0 0 59.34 6.6M7.96 57.57a1.5 1.5 0 0 0-2.92.71 43.3 43.3 0 0 0 31.68 31.68 1.5 1.5 0 1 0 .71-2.92A40.3 40.3 0 0 1 7.96 57.57m81 .71a1.5 1.5 0 0 0-2.92-.71 40.3 40.3 0 0 1-27.56 28.96 1.5 1.5 0 1 0 .86 2.87 43.3 43.3 0 0 0 29.62-31.12"/></svg>