<svg aria-hidden="true" class="svg-spot spotCollective" width="48" height="48"  viewBox="0 0 48 48"><path  d="M25.5 7a2.5 2.5 0 1 0 0-5 2.5 2.5 0 0 0 0 5M14 18.25c0-.69.56-1.25 1.25-1.25h22.5c.69 0 1.25.56 1.25 1.25V37.5a1 1 0 0 1-1.6.8l-4.07-3.05a1.3 1.3 0 0 0-.75-.25H15.25c-.69 0-1.25-.56-1.25-1.25zM7 24.5a2.5 2.5 0 1 1-5 0 2.5 2.5 0 0 1 5 0M25.5 48a2.5 2.5 0 1 0 0-5 2.5 2.5 0 0 0 0 5M48 24.5a2.5 2.5 0 1 1-5 0 2.5 2.5 0 0 1 5 0" opacity=".2"/><path  d="M21 3.5a3.5 3.5 0 1 1 7 0 3.5 3.5 0 0 1-7 0M24.5 2a1.5 1.5 0 1 0 0 3 1.5 1.5 0 0 0 0-3M0 23.5a3.5 3.5 0 1 1 7 0 3.5 3.5 0 0 1-7 0M3.5 22a1.5 1.5 0 1 0 0 3 1.5 1.5 0 0 0 0-3M21 44.5a3.5 3.5 0 1 1 7 0 3.5 3.5 0 0 1-7 0m3.5-1.5a1.5 1.5 0 1 0 0 3 1.5 1.5 0 0 0 0-3m20-23a3.5 3.5 0 1 0 0 7 3.5 3.5 0 0 0 0-7M43 23.5a1.5 1.5 0 1 1 3 0 1.5 1.5 0 0 1-3 0m-23.23-3.14a1 1 0 0 1-.13 1.4l-2.08 1.74 2.08 1.73a1 1 0 1 1-1.28 1.54l-2.42-2.02a1.63 1.63 0 0 1 0-2.5l2.42-2.02a1 1 0 0 1 1.4.13m7.6 1.41a1 1 0 1 1 1.28-1.54l2.42 2.02c.78.65.78 1.85 0 2.5l-2.42 2.02a1 1 0 1 1-1.28-1.54l2.08-1.73zM24.12 18a1 1 0 0 1 .87 1.12l-1 8a1 1 0 1 1-1.98-.24l1-8a1 1 0 0 1 1.11-.87M12.25 13C11.01 13 10 14 10 15.25v15.5c0 1.24 1 2.25 2.25 2.25h17.33q.09 0 .15.05l4.07 3.05a2 2 0 0 0 3.2-1.6V15.25c0-1.24-1-2.25-2.25-2.25zM12 15.25q.02-.23.25-.25h22.5q.23.02.25.25V34.5l-4.07-3.05q-.6-.45-1.35-.45H12.25a.25.25 0 0 1-.25-.25zm7.24-10.68a1 1 0 1 0-.48-1.94A22 22 0 0 0 2.91 17.7a1 1 0 1 0 1.92.58 20 20 0 0 1 14.4-13.72m11.06-1.65a1 1 0 0 0-.58 1.92c6.45 1.92 11.54 7 13.46 13.46a1 1 0 1 0 1.92-.58 22 22 0 0 0-14.8-14.8M4.57 28.76a1 1 0 0 0-1.94.48 22 22 0 0 0 16.13 16.13 1 1 0 1 0 .48-1.94A20 20 0 0 1 4.57 28.76m40.8.48a1 1 0 1 0-1.94-.48 20 20 0 0 1-13.72 14.41 1 1 0 0 0 .58 1.92 22 22 0 0 0 15.08-15.85"/></svg>