<svg aria-hidden="true" class="svg-spot spotFireXL" width="196" height="196"  viewBox="0 0 196 196"><path  d="M27.76 27.67C.98 63.9 10.38 114.16 22.2 145.54c5.8 15.42 16.65 27.29 53.96 40.42s85.3.66 100.2-25.1c14.92-25.77 20.48-79.79-4.83-120.65C146.23-.64 51.3-4.17 27.76 27.67m96.64 44.96c1.23-1.93 2.21-3.03 2.84-2.72 3.3 1.65 8.25 42.47 8.25 47.85a41.25 41.25 0 0 1-82.49 0c0-8.4 2.46-16.86 5.07-25.87 4.5-15.45 9.43-32.48 3.18-53.33-9.9-33 33 18.15 42.9 59.4 3.98 4.82 10.55-7.52 15.79-17.36a137 137 0 0 1 4.45-7.97" opacity=".07"/><path  d="M62.9 117.76a41.25 41.25 0 0 0 82.49 0c0-5.39-4.95-46.2-8.25-47.85-1.27-.63-4.02 4.54-7.3 10.7-5.24 9.83-11.8 22.17-15.8 17.35-9.9-41.25-52.8-92.4-42.9-59.4 6.26 20.85 1.32 37.88-3.17 53.33-2.61 9-5.07 17.48-5.07 25.86m14.5 14.96c0-3.59 1.08-7.22 2.23-11.07 1.97-6.62 4.15-13.91 1.4-22.84-4.36-14.13 14.51 7.77 18.87 25.43 1.76 2.07 4.65-3.21 6.95-7.43 1.44-2.63 2.65-4.85 3.21-4.58 1.45.71 3.63 18.19 3.63 20.5 0 9.75-8.12 17.65-18.15 17.65s-18.14-7.9-18.14-17.66m57.17-75.77a3.5 3.5 0 1 0-2.79-6.42l-12.69 5.5a3.5 3.5 0 0 0 2.79 6.42zm-10.71-26.11a3.5 3.5 0 0 1 1.35 4.77l-10.8 19.27a3.5 3.5 0 1 1-6.11-3.42l10.8-19.27a3.5 3.5 0 0 1 4.76-1.35m-18.98 6.44a3.5 3.5 0 1 0-7 .23l.36 10.6a3.5 3.5 0 0 0 7-.23z" opacity=".2"/><path  d="m82.91 95.96.35.35c4.92 4.96 12.73 17.06 15.34 27.64.74.86 1.68.44 2.68-.67q.48-.52.97-1.2a59 59 0 0 0 3.3-5.56l.78-1.42c1.1-1.96 1.98-3.38 2.43-3.16.4.2.85 1.64 1.3 3.7l.15.72c1.13 5.53 2.18 14.46 2.18 16.07 0 9.75-8.12 17.66-18.15 17.66s-18.14-7.91-18.14-17.66c0-3.6 1.08-7.22 2.23-11.08 1.97-6.62 4.15-13.9 1.4-22.83l-.03-.09q-.08-.22-.13-.46c-1.4-4.92.37-4.9 3.34-2.01m12.64 30.58-.6-.72-.23-.91c-1.69-6.83-5.83-14.56-9.78-20.19.36 4.99-.48 9.45-1.53 13.41q-.59 2.17-1.18 4.15l-.06.2a116 116 0 0 0-1.03 3.56 25 25 0 0 0-1.04 6.39c0 7.44 6.23 13.66 14.14 13.66s14.15-6.22 14.15-13.66v-.1a13 13 0 0 0-.08-1.06q-.09-1-.25-2.46c-.23-1.93-.54-4.3-.9-6.62l-.04-.3a24 24 0 0 1-3.03 4.25 7 7 0 0 1-3.26 2.09 5.1 5.1 0 0 1-5.28-1.7m31.69-56.62c-.62-.31-1.61.79-2.84 2.72-1.27 1.99-2.8 4.85-4.46 7.97-5.24 9.84-11.8 22.18-15.8 17.36-9.9-41.25-52.79-92.4-42.9-59.4 6.26 20.85 1.32 37.88-3.17 53.33-2.61 9-5.07 17.48-5.07 25.86a41.24 41.24 0 1 0 82.49 0c0-5.37-4.95-46.19-8.25-47.84m-26.18 30.6a7 7 0 0 0 3.08 2.19c1.32.45 2.63.41 3.78.1 2.1-.58 3.8-2.1 5.04-3.43 2.58-2.8 5.16-7.1 7.43-11.17q1.7-3.09 3.14-5.82 1.26-2.4 2.42-4.5l.07.32c.9 4 1.8 9.32 2.63 14.82 1.65 11.14 2.84 22.4 2.84 24.74a37.24 37.24 0 1 1-74.49 0c0-5.2 1.03-10.54 2.55-16.34.72-2.74 1.53-5.52 2.37-8.43l.14-.49q1.35-4.6 2.65-9.51c3.39-13.16 5.62-28.08.37-45.57q-.6-2-.89-3.38.42.37.9.83a75 75 0 0 1 7.02 8c10.5 13.53 23.37 36.11 28.14 56.02l.22.9zm-75.48 15.78-9.3-9.29L7 116.29l9.29 9.29zm-9.3 3.1-3.09-3.1 3.1-3.1 3.1 3.1zM21.37 141l4.37 4.37-4.37 4.37-4.37-4.37zM173 162a2 2 0 1 0-4 0v4h-4a2 2 0 1 0 0 4h4v4a2 2 0 1 0 4 0v-4h4a2 2 0 1 0 0-4h-4z"/></svg>