<svg aria-hidden="true" class="svg-spot spotGauge" width="48" height="48"  viewBox="0 0 48 48"><path  d="M26.5 45a18.5 18.5 0 1 0 0-37 18.5 18.5 0 0 0 0 37" opacity=".2"/><path  d="M24 9c.52 0 .95.42.95.94v1.3a.95.95 0 0 1-1.9 0v-1.3c0-.52.43-.95.95-.95m13.06 14.16a.95.95 0 1 0 0 1.9h1.28a.95.95 0 0 0 0-1.9zm-28.03.95c0-.52.42-.95.95-.95h1.29a.95.95 0 0 1 0 1.9h-1.3a.95.95 0 0 1-.94-.95m26.34-9.33a.95.95 0 0 0-1.32-1.37l-1.04 1a.95.95 0 1 0 1.32 1.38zm-21.71-1.35a.95.95 0 0 1 1.34 0l1 1a.95.95 0 1 1-1.34 1.34l-1-1a.95.95 0 0 1 0-1.34m17.15-1.76a.95.95 0 0 0-1.7-.85l-.64 1.28a.95.95 0 0 0 1.7.85zm4.43 17.17a.95.95 0 0 1 1.27-.43l1.29.64a.95.95 0 0 1-.85 1.7l-1.29-.64a.95.95 0 0 1-.42-1.27M11.56 18.07a.95.95 0 0 0-.85 1.7l1.3.65a.95.95 0 0 0 .84-1.7zm26.18.46a.95.95 0 0 1-.42 1.27l-1.3.65a.95.95 0 0 1-.84-1.7l1.29-.65a.95.95 0 0 1 1.27.43M13.14 30.1a.95.95 0 0 0-.85-1.7l-1.29.64a.95.95 0 1 0 .85 1.7zm4.87-19.76a.95.95 0 0 1 1.28.42l.64 1.29a.95.95 0 1 1-1.7.85l-.64-1.29a.95.95 0 0 1 .42-1.27m14.71 10.47a1 1 0 0 0-1.16-1.62l-6.66 4.76a2.2 2.2 0 0 0-2.93 2.27l-.52.35a1 1 0 0 0 1.1 1.66l.47-.31q.51.31 1.16.32a2.2 2.2 0 0 0 2.11-2.83zm-8.75 5.23a.2.2 0 1 1 .41 0 .2.2 0 0 1-.41 0M15 31a1 1 0 0 1 1-1h17a1 1 0 0 1 1 1v4a1 1 0 0 1-1 1H16a1 1 0 0 1-1-1zm2 1v2h15v-2zm3 7a1 1 0 1 0 0-2 1 1 0 0 0 0 2m5-1a1 1 0 1 1-2 0 1 1 0 0 1 2 0m3 1a1 1 0 1 0 0-2 1 1 0 0 0 0 2m-3.34-23.28a8.05 8.05 0 0 0-7.94 8.1q0 1.57.53 2.92a.72.72 0 0 1-1.33.52 9 9 0 0 1-.64-3.43c0-5.25 4.2-9.55 9.38-9.55 1.74 0 3.43.49 4.81 1.35a.72.72 0 1 1-.76 1.22 7.7 7.7 0 0 0-4.05-1.13m-2.42 4.35a7 7 0 0 1 2.3-.35c.93 0 1.86.18 2.65.49a.72.72 0 0 0 .53-1.33 9 9 0 0 0-3.19-.6c-.93 0-1.9.13-2.77.43a.72.72 0 1 0 .48 1.36M24 5a19 19 0 1 0 0 38 19 19 0 0 0 0-38M7 24a17 17 0 1 1 34 0 17 17 0 0 1-34 0M24 1a23 23 0 1 0 0 46 23 23 0 0 0 0-46M3 24a21 21 0 1 1 42 0 21 21 0 0 1-42 0"/></svg>