<svg aria-hidden="true" class="svg-spot spotGaugeLg" width="96" height="96"  viewBox="0 0 96 96"><path  d="M52 89a37 37 0 1 0 0-74 37 37 0 0 0 0 74" opacity=".2"/><path  d="M46.65 30.39C37.51 30.39 30 38 30 47.39c0 2.2.38 4.2 1.12 6.1a1.5 1.5 0 1 1-2.8 1.09 19 19 0 0 1-1.32-7.2c0-10.98 8.8-20 19.65-20 3.64 0 7.18 1.01 10.08 2.83a1.5 1.5 0 1 1-1.6 2.54 16 16 0 0 0-8.48-2.36M42 37.32c1.43-.5 3.1-.73 4.8-.73 1.97 0 3.92.38 5.57 1.04a1.5 1.5 0 0 0 1.12-2.79 18 18 0 0 0-6.68-1.25c-1.96 0-3.98.26-5.8.9a1.5 1.5 0 0 0 .99 2.83m5.5-20.39c.83 0 1.5.67 1.5 1.5v2.66a1.5 1.5 0 0 1-3 0v-2.66c0-.83.67-1.5 1.5-1.5m27 29.28a1.5 1.5 0 0 0 0 3h2.66a1.5 1.5 0 1 0 0-3zM17 47.71c0-.83.67-1.5 1.5-1.5h2.66a1.5 1.5 0 0 1 0 3H18.5a1.5 1.5 0 0 1-1.5-1.5m53.7-19.63a1.5 1.5 0 1 0-2.09-2.16L66.46 28a1.5 1.5 0 0 0 2.08 2.16zm-44.26-2.14a1.5 1.5 0 0 1 2.12 0l2.08 2.08a1.5 1.5 0 1 1-2.12 2.12l-2.08-2.08a1.5 1.5 0 0 1 0-2.12m34.73-4.18a1.5 1.5 0 1 0-2.68-1.34l-1.33 2.66a1.5 1.5 0 1 0 2.68 1.34zm9.99 35.93a1.5 1.5 0 0 1 2.01-.67l2.66 1.33a1.5 1.5 0 0 1-1.34 2.68l-2.66-1.33a1.5 1.5 0 0 1-.67-2.01M21.57 35.66a1.5 1.5 0 1 0-1.34 2.68l2.66 1.33A1.5 1.5 0 0 0 24.23 37zm53.93.74a1.5 1.5 0 0 1-.67 2l-2.66 1.34a1.5 1.5 0 1 1-1.34-2.69l2.66-1.33a1.5 1.5 0 0 1 2.01.67M24.83 59.7a1.5 1.5 0 1 0-1.34-2.68l-2.66 1.33a1.5 1.5 0 0 0 1.34 2.68zm10.5-40.04a1.5 1.5 0 0 1 2.01.67l1.33 2.66A1.5 1.5 0 1 1 36 24.33l-1.33-2.66a1.5 1.5 0 0 1 .67-2.01m30.01 16.63a1.5 1.5 0 1 0-1.75-2.44l-13.97 9.98-.06.04A4 4 0 0 0 44 47.55q0 .33.05.65l-1.38.92a1.5 1.5 0 0 0 1.66 2.5l1.29-.86a4 4 0 0 0 6.08-4.73zM47 47.55a1 1 0 1 1 2 0 1 1 0 0 1-2 0M30 59.5c0-.83.67-1.5 1.5-1.5h32c.83 0 1.5.67 1.5 1.5v7c0 .83-.67 1.5-1.5 1.5h-32a1.5 1.5 0 0 1-1.5-1.5zm3 1.5v4h29v-4zm8 15a1.5 1.5 0 1 0 0-3 1.5 1.5 0 0 0 0 3m8.5-1.5a1.5 1.5 0 1 1-3 0 1.5 1.5 0 0 1 3 0M55 76a1.5 1.5 0 1 0 0-3 1.5 1.5 0 0 0 0 3m-7-66a38 38 0 1 0 0 76 38 38 0 0 0 0-76M13 48a35 35 0 1 1 70 0 35 35 0 0 1-70 0M48 1a47 47 0 1 0 0 94 47 47 0 0 0 0-94M4 48a44 44 0 1 1 88 0 44 44 0 0 1-88 0"/></svg>