<svg aria-hidden="true" class="svg-spot spotGlobe" width="48" height="48"  viewBox="0 0 48 48"><circle cx="25.5" cy="25.5" r="20.5"  opacity=".2"/><path  d="M23.8 45a9 9 0 0 0 1.13-.05 21.5 21.5 0 1 0-1.13.05m8.35-4.02a21 21 0 0 0 3.8-6.29q1.32.64 2.45 1.4a20 20 0 0 1-6.25 4.89M43 24a19.4 19.4 0 0 1-3.38 10.49 23 23 0 0 0-2.98-1.7A31 31 0 0 0 38 24zM16.6 41.74a19.5 19.5 0 0 1-8.08-5.76q1.52-.99 3.35-1.77a20 20 0 0 0 4.72 7.53m-5.37-9.43q-2.13.89-3.9 2.06A19.4 19.4 0 0 1 4 24h6c.04 2.95.47 5.76 1.21 8.3M23 42.93c-2.62-.37-5.18-2.18-7.22-5.32a21 21 0 0 1-2.05-4.1A31 31 0 0 1 23 32zM23 30a33 33 0 0 0-9.9 1.6A29 29 0 0 1 12 24h11zm2-6h11a29 29 0 0 1-1.22 8A32 32 0 0 0 25 30.05zm0 18.93V32.04c3.34.16 6.43.83 9.12 1.86a21 21 0 0 1-1.9 3.71c-2.04 3.14-4.6 4.95-7.22 5.32M37.97 22a31 31 0 0 0-1.6-8.57q1.5-.66 2.83-1.5A19.4 19.4 0 0 1 42.94 22zm-4.18-9.68c-2.61.93-5.6 1.52-8.79 1.65v-9.9c2.62.37 5.18 2.18 7.22 5.32q.87 1.34 1.57 2.93M25 15.97c3.42-.13 6.66-.76 9.52-1.79A29 29 0 0 1 35.96 22H25zM23 16v6H12.04c.13-2.74.61-5.3 1.37-7.59A33 33 0 0 0 23 16m0-2a31 31 0 0 1-8.89-1.45q.74-1.72 1.67-3.15c2.04-3.14 4.6-4.95 7.22-5.32zm-11.47-.27a31 31 0 0 0-1.5 8.28H4.06a19.4 19.4 0 0 1 3.81-10.17q1.68 1.06 3.66 1.89m-2.36-3.44a19.5 19.5 0 0 1 7.41-5.02 20 20 0 0 0-4.35 6.58q-1.66-.69-3.06-1.56m26.48 1.29a20 20 0 0 0-3.5-5.55 20 20 0 0 1 5.77 4.36q-1.06.64-2.27 1.19"/></svg>