<svg aria-hidden="true" class="svg-spot spotGlobeXL" width="196" height="196"  viewBox="0 0 196 196"><path  d="M162.32 20.38C123.92-3.2 74.66 10.5 44.41 24.96 29.55 32.07 18.65 43.9 8.78 82.2s6.67 85.03 33.62 97.68c26.95 12.64 81.24 13.54 119.77-15.18s33.9-123.61.15-144.32M96.5 168a69.5 69.5 0 1 1 0-139 69.5 69.5 0 0 1 0 139" opacity=".07"/><circle cx="103" cy="105" r="66"  opacity=".2"/><path  d="M167 15a2 2 0 1 0-4 0v4h-4a2 2 0 1 0 0 4h4v4a2 2 0 1 0 4 0v-4h4a2 2 0 1 0 0-4h-4zM95.19 167.99l.81.01h.5a69.5 69.5 0 1 0-1.31-.01m18.81-6.35c8.09-6.04 14.82-16 19.25-28.4a68 68 0 0 1 13.35 7.46 65.5 65.5 0 0 1-32.6 20.94M161.98 100a65 65 0 0 1-12.9 37.56 72 72 0 0 0-14.56-8.12c2.74-8.9 4.33-18.88 4.47-29.44zm-84.6 61.17a65.6 65.6 0 0 1-31.64-21.27 69 69 0 0 1 12.9-6.95c4.33 12.2 10.87 22.1 18.74 28.22M57.4 129.14a73 73 0 0 0-14.09 7.58A65 65 0 0 1 31.02 100H53c.14 10.44 1.7 20.32 4.38 29.14M94 163.91c-9.26-.81-18.13-7.26-25-18.37a73 73 0 0 1-6.62-14.03 99 99 0 0 1 31.62-5.5zm0-41.9c-11.87.17-23.06 2.2-32.86 5.7-2.51-8.35-4-17.73-4.13-27.71H94zM98 100h36.99a101 101 0 0 1-4.2 27.97A102 102 0 0 0 98 122.03zm0 63.91v-37.88a98 98 0 0 1 31.53 5.74 72 72 0 0 1-6.53 13.77c-6.87 11.11-15.74 17.56-25 18.37M138.97 96a105 105 0 0 0-4.36-28.14 73 73 0 0 0 14.75-8.05A65 65 0 0 1 161.96 96zm-9.35-30.51A99 99 0 0 1 98 70.99v-37.9c9.26.81 18.13 7.26 25 18.37a73 73 0 0 1 6.62 14.03M98 74.99c11.87-.17 23.06-2.2 32.86-5.7A101 101 0 0 1 134.97 96H98zm-4-.02V96H57.03c.22-9.7 1.71-18.83 4.19-26.97A102 102 0 0 0 94 74.97m0-4a98 98 0 0 1-31.53-5.74A72 72 0 0 1 69 51.46C75.87 40.35 84.74 33.9 94 33.1zm39.35-6.92c-4.43-12.53-11.2-22.6-19.35-28.69a65.5 65.5 0 0 1 32.9 21.3 69 69 0 0 1-13.55 7.39M43.57 59.9a72 72 0 0 0 13.91 7.65A105 105 0 0 0 53.03 96H31.05a65 65 0 0 1 12.52-36.1m2.46-3.16a65.6 65.6 0 0 1 31.35-20.92c-7.8 6.08-14.31 15.85-18.63 27.93-4.7-2-8.97-4.36-12.72-7.01M24 146.5l-8.5-8.5-8.5 8.5 8.5 8.5zm-8.5 2.83-2.83-2.83 2.83-2.83 2.83 2.83zM24 162l4 4-4 4-4-4z"/></svg>