<svg aria-hidden="true" class="svg-spot spotGlobeLg" width="96" height="96"  viewBox="0 0 96 96"><circle cx="51.5" cy="52.5" r="41.5"  opacity=".2"/><path  d="M52.58 91.7a43.5 43.5 0 1 0-10.22 0q2.51.79 5.14.8 2.61 0 5.08-.8M46 88.98q-1.5-.04-2.98-.22c-4.48-1.49-8.78-5.18-12.32-10.83a46 46 0 0 1-4.02-8.23A59 59 0 0 1 46 66.02zm3 0V66.02a58 58 0 0 1 18.64 3.48 46 46 0 0 1-3.88 8.47c-3.35 5.64-7.47 9.31-11.84 10.8q-1.44.15-2.92.2m0-25.95V50h21.98a66 66 0 0 1-2.43 16.64A62 62 0 0 0 49 63.02m11.57 23.83c4.1-3.86 7.51-9.5 9.86-16.23a48 48 0 0 1 7.81 4.25 40.6 40.6 0 0 1-17.67 11.98m10.78-19.1A69 69 0 0 0 73.98 50h14a40.3 40.3 0 0 1-7.86 22.51 51 51 0 0 0-8.77-4.76m-45.64-.9A62 62 0 0 1 23.01 50H46v13.02a62 62 0 0 0-20.29 3.83M20.01 50a65 65 0 0 0 2.91 17.98 50 50 0 0 0-8.1 4.45A40.3 40.3 0 0 1 7.02 50zm14.03 36.71A40.6 40.6 0 0 1 16.7 74.79a47 47 0 0 1 7.22-3.97c2.47 6.58 5.98 12.08 10.13 15.9M23.02 47a60 60 0 0 1 2.71-16.72A62 62 0 0 0 46 33.98V47zm.93-20.68a44 44 0 0 1-7.27-4.09 40.5 40.5 0 0 1 18.9-12.45c-4.8 3.64-8.86 9.4-11.63 16.54m2.78 1.13a43 43 0 0 1 3.95-7.83C34.98 12.98 40.43 9.16 46 8.58v22.4a59 59 0 0 1-19.27-3.53M49 30.98V8.58c5.5.58 10.72 4.36 14.79 10.98a43 43 0 0 1 3.86 8.2A64 64 0 0 1 49 30.98m0 3c6.9-.15 13.6-1.37 19.57-3.36A64 64 0 0 1 70.98 47H49zm22.4-4.38a51 51 0 0 0 9.1-4.59A40.3 40.3 0 0 1 87.97 47H73.98a67 67 0 0 0-2.59-17.4m-.93-2.86C67.84 19.34 63.89 13.4 59.1 9.7a40.5 40.5 0 0 1 19.56 12.94 48 48 0 0 1-8.2 4.11M14.8 24.6a47 47 0 0 0 8.13 4.56A63 63 0 0 0 20.02 47h-13a40.3 40.3 0 0 1 7.8-22.41"/></svg>