<svg aria-hidden="true" class="svg-spot spotIdentityLg" width="96" height="96"  viewBox="0 0 96 96"><path  d="M77 73H23a2 2 0 0 0-2 2v16a3 3 0 0 0 3 3h51a5 5 0 0 0 5-5V76a3 3 0 0 0-3-3" opacity=".2"/><path  d="M32.5 81a1.5 1.5 0 0 0 0 3H60a1.5 1.5 0 0 0 0-3zm5.5-4.5c0-.83.67-1.5 1.5-1.5h14a1.5 1.5 0 0 1 0 3h-14a1.5 1.5 0 0 1-1.5-1.5M33.57 1.32a1.5 1.5 0 0 1 2.1.25l3.52 4.46h14.2l2.86-4.35a1.5 1.5 0 0 1 2.5 1.64l-1.77 2.7H72.5a4.5 4.5 0 0 1 4.5 4.5V86.5a4.5 4.5 0 0 1-4.5 4.5h-53a4.5 4.5 0 0 1-4.5-4.5V10.53a4.5 4.5 0 0 1 4.5-4.5h15.87l-2.05-2.6a1.5 1.5 0 0 1 .25-2.1m20.6 7.7H41.56l2.23 2.84a7 7 0 1 1-2.6 1.55l-3.45-4.38H19.5c-.83 0-1.5.67-1.5 1.5V67h7.02c.12-3.18 1.93-5.42 3.83-6.93a23 23 0 0 1 4.85-2.77c1.9-.85 3.86-1.6 5.76-2.49q.32-.15.7-.38c.85-.53.57-1.43.57-2.35a13 13 0 0 1-2.92-3.81 9 9 0 0 1-.75-2.53l-.12-.27a7 7 0 0 0-.58-1.24l-.16-.28q-.34-.59-.72-1.36a12.4 12.4 0 0 1-1.13-5.58 9.5 9.5 0 0 1 3.48-7.66 11.4 11.4 0 0 1 7.4-2.33c5.14.12 10.8 3.44 10.8 10 0 2.44-.29 3.8-.83 4.92a11 11 0 0 1-.77 1.3 9 9 0 0 0-.75 1.42 15 15 0 0 1-1.69 5.31c.18 1.7-.2 4.08 1.32 5.16 1.75 1.25 3.93 1.7 5.91 2.47 2.17.75 4.13 1.72 5.55 3.22A8.5 8.5 0 0 1 67.03 67H74V10.53c0-.83-.67-1.5-1.5-1.5zM37.45 38.72q.24-1.09.58-2.01.3-.82.68-1.49a4 4 0 0 1 .99-1.2c.22-.18.64-.49 1.19-.57a1.8 1.8 0 0 1 1.66.67c.18.21.32.5.39.63l.02.03q.12.24.27.45c.32.45 1.28 1.49 4.96 1.82a5.7 5.7 0 0 1 4.61 2.72c.13-.57.22-1.4.22-2.75 0-4.33-3.68-6.9-7.87-7a8.4 8.4 0 0 0-5.45 1.68c-1.38 1.11-2.35 2.82-2.35 5.32q0 .95.1 1.7M64.04 67c-.1-1.55-.33-2.95-1.44-4.12-.94-.99-2.38-1.76-4.38-2.45l-.05-.02-3.08-1.2a5 5 0 0 1-.82 1.67 6 6 0 0 1-2.5 1.9c-1.83.8-4.06.96-5.87.96-1.88 0-3.9-.6-5.56-1.64a8 8 0 0 1-2.93-3.16l-2.5 1.1a20 20 0 0 0-4.2 2.38c-1.48 1.18-2.57 2.64-2.68 4.58zm-11.76-8.97c-1.08-.64-2.18-1.48-2.68-2.66a2 2 0 0 1-.1-.43l-.18-1.69a5 5 0 0 1-3.06 1.15 7 7 0 0 1-2.53-.47v.21a2.8 2.8 0 0 1-.78 1.87c-.37.4-.81.72-1.19.96a10 10 0 0 1-1.58.8q.55 1 1.77 1.8a7.7 7.7 0 0 0 3.95 1.17c1.71 0 3.43-.17 4.67-.71a3 3 0 0 0 1.3-.94q.3-.39.4-1.06M18 70v16.5c0 .83.67 1.5 1.5 1.5h53c.83 0 1.5-.67 1.5-1.5V70zm24-51.5a4 4 0 1 0 6.92-2.74l-.05.07-.9 1.23a2.4 2.4 0 0 1-1.95 1.02c-.79 0-1.48-.4-1.93-1l-1.03-1.3A4 4 0 0 0 42 18.5m4-4h.12l-.12.16-.13-.16zm-5.15 23.22c-.3.85-.58 1.94-.75 3.12a17 17 0 0 0-.18 3.48q.11 1.69.57 2.6c.54 1.07 1.4 2.22 2.45 3.1a5.3 5.3 0 0 0 3.32 1.38c.51 0 1.33-.4 2.25-1.57.86-1.1 1.6-2.63 1.96-4.19.38-1.58.35-3-.06-3.98-.36-.85-1.05-1.5-2.49-1.63-3.91-.36-5.84-1.5-6.9-2.76z"/></svg>