<svg aria-hidden="true" class="svg-spot spotIdentity" width="48" height="48"  viewBox="0 0 48 48"><path  d="M41 37H12a2 2 0 0 0-2 2v7c0 1.1.9 2 2 2h29a2 2 0 0 0 2-2v-7a2 2 0 0 0-2-2" opacity=".2"/><path  d="M16 40a1 1 0 1 0 0 2h15a1 1 0 1 0 0-2zm3-2a1 1 0 0 1 1-1h7a1 1 0 1 1 0 2h-7a1 1 0 0 1-1-1M29.8 1.6A1 1 0 0 0 28.2.4L27 2h-6.85L18.76.36a1 1 0 0 0-1.52 1.28l.3.36H9a3 3 0 0 0-3 3v38a3 3 0 0 0 3 3h29a3 3 0 0 0 3-3V5a3 3 0 0 0-3-3h-8.5zM8 43v-8h31v8a1 1 0 0 1-1 1H9a1 1 0 0 1-1-1M8 5a1 1 0 0 1 1-1h10.22l1.75 2.08A3.49 3.49 0 0 0 23.5 12a3.5 3.5 0 1 0-.75-6.92L21.84 4H38a1 1 0 0 1 1 1v28h-4.42a4.4 4.4 0 0 0-1.2-2.93 7 7 0 0 0-2.9-1.7l-2.78-1c-.06-.03-.2-.1-.33-.2-.1-.08-.14-.12-.17-.23l-.4-1.59c.43-.5.78-1.1 1.03-1.71.29-.7.46-1.5.37-2.29l.01-.03c.15-.29.34-.63.46-1 .17-.54.24-1.15.2-2.04a5.2 5.2 0 0 0-1.82-3.91 5.5 5.5 0 0 0-3.66-1.25c-1.3.03-2.6.5-3.58 1.47a5.3 5.3 0 0 0-1.49 4.14q0 .23.12.42l.01.5c.07 1.3.36 2.8.77 3.8a7 7 0 0 0 1.7 2.43l-.2.7q-.05.15-.2.22l-.34.18q-1.31.59-2.64 1.16a10 10 0 0 0-3.59 1.85A4.8 4.8 0 0 0 12.26 33H8zm18.86 14.18a4 4 0 0 0-1.37-.54 6.6 6.6 0 0 1-3.35-1.58c-.34-.31-.66-.67-1.06-.9l.14-.15a3.3 3.3 0 0 1 2.22-.89c.85-.02 1.7.25 2.32.78.61.51 1.07 1.3 1.1 2.46q.03.52 0 .82m-3.41 7.88c.58.07 1.14-.07 1.64-.31l.15.6c.04.37.21.67.37.87.17.24.39.42.56.55q.2.15.36.24l-.1.2q-.15.22-.56.4a6 6 0 0 1-2.27.34c-.92 0-1.99-.4-2.55-1.17q.22-.1.52-.29a3 3 0 0 0 .66-.53c.17-.19.4-.5.44-.92l.04-.13q.35.1.74.15m4.94 2.69c1.2.43 2.64.75 3.54 1.7.36.37.6.84.65 1.55H14.29q.2-.82.98-1.5c1.12-.98 2.6-1.32 3.93-1.9a4.4 4.4 0 0 0 1.46 1.48c.88.56 1.95.87 2.94.87a8 8 0 0 0 3.07-.5 3.2 3.2 0 0 0 1.72-1.7M22 8.5q0-.5.28-.87l.1.12c.27.35.68.58 1.15.58.5 0 .91-.25 1.18-.61l.04-.05q.25.36.25.83a1.5 1.5 0 0 1-3 0m-1.2 10.05a8.6 8.6 0 0 0 4.3 2.06c.73.14.96.46 1.06.73.11.35.08.9-.18 1.55a5 5 0 0 1-1.17 1.66c-.5.44-.9.55-1.13.53a2.7 2.7 0 0 1-1.56-.82 5 5 0 0 1-1.05-1.56 11 11 0 0 1-.59-4.45l.33.3"/></svg>