<svg aria-hidden="true" class="svg-spot spotJobListingsXL" width="196" height="196"  viewBox="0 0 196 196"><path  d="M169.5 160.59c23.36-31.7 15.06-75.62 4.7-103.03-5.1-13.47-26.16-41.32-69.61-43.36S45.52 26.37 32.52 48.9c-13 22.55-26.5 67.94-4.33 103.61s120.79 35.94 141.3 8.08M36 66h103v21H36zm0 32h103v21H36zm103 29v21H36v-21z" opacity=".07"/><path  d="M143 70H44a2 2 0 0 0-2 2v19c0 1.1.9 2 2 2h99a2 2 0 0 0 2-2V72a2 2 0 0 0-2-2" opacity=".2"/><path  d="m164.7 29.36-8.5-8.5-8.5 8.5 8.5 8.5zm-8.5 2.84-2.83-2.84 2.84-2.83 2.83 2.83zM20 140a2 2 0 0 1 2 2v4h4a2 2 0 1 1 0 4h-4v4a2 2 0 1 1-4 0v-4h-4a2 2 0 1 1 0-4h4v-4c0-1.1.9-2 2-2m19.7 21.86 4 4-4 4-4-4zM129 141a3 3 0 1 0 0-6 3 3 0 0 0 0 6m0-61a3 3 0 1 0 0-6 3 3 0 0 0 0 6m0 31a3 3 0 1 0 0-6 3 3 0 0 0 0 6M48 50.1a4.1 4.1 0 0 1 4.1-4.1h94.8a4.1 4.1 0 0 1 4.1 4.1v86.8a4.1 4.1 0 0 1-4.1 4.1H141v7a2 2 0 0 1-2 2H36a2 2 0 0 1-2-2v-21c0-1.1.9-2 2-2h12v-4H36a2 2 0 0 1-2-2V98c0-1.1.9-2 2-2h12.08a2 2 0 0 1-.08-.58V89H36a2 2 0 0 1-2-2V66c0-1.1.9-2 2-2h12zm89 78.9H38v17h99zm9.9 8a.1.1 0 0 0 .1-.1V60H52v4h87a2 2 0 0 1 2 2v21a2 2 0 0 1-2 2H52v6.42a2 2 0 0 1-.08.58H139a2 2 0 0 1 2 2v21a2 2 0 0 1-2 2H52v4h87a2 2 0 0 1 2 2v10zM79 56h68v-6H79zm-4-6H52v6h23zM38 85h99V68H38zm0 15v17h99v-17z"/></svg>