<svg aria-hidden="true" class="svg-spot spotJobSearchXL" width="196" height="196"  viewBox="0 0 196 196"><path  d="M11.81 47.6c-17.42 41.55 3.64 88.14 22.56 115.83 7.38 10.79 15.06 12.1 45.31 17.3 7.87 1.34 17.26 2.95 28.57 5.06 54.8 10.2 71.14-15.49 79.52-44.05 8.38-28.57.96-82.37-33.31-116.05-34.28-33.7-127.34-14.6-142.65 21.9m73.44 93.91a57.26 57.26 0 1 1 0-114.51 57.26 57.26 0 0 1 0 114.51" opacity=".07"/><path  d="M90.98 148.38a57.25 57.25 0 1 0 0-114.5 57.25 57.25 0 0 0 0 114.5M66 75h49a4 4 0 0 1 4 4v29a6 6 0 0 1-6 6H66a4 4 0 0 1-4-4V79a4 4 0 0 1 4-4" opacity=".2"/><path  d="M107.88 44.76a2 2 0 0 0-1.99 3.47 41.5 41.5 0 0 1 20.06 27.85 2 2 0 1 0 3.93-.8 45.5 45.5 0 0 0-22-30.52m-24.41-4.03c0-1.1.9-2 2.01-1.99q4.31.03 8.54.85a2 2 0 1 1-.77 3.93q-3.85-.75-7.79-.78a2 2 0 0 1-1.99-2M69 61.95A3.95 3.95 0 0 1 72.95 58h25.1a3.95 3.95 0 0 1 3.95 3.95V67h9.05a3.95 3.95 0 0 1 3.95 3.95v35.1a3.95 3.95 0 0 1-3.95 3.95h-53.1a3.95 3.95 0 0 1-3.95-3.95v-35.1A3.95 3.95 0 0 1 57.95 67H69zM58 71v35h11V71zm40 35V71H73v35zm4 0h9V71h-9zm-4-39v-5H73v5zm34.23 53.38a59.25 59.25 0 1 0-10.84 10.84c.17 2.33 1.15 4.6 2.92 6.37l31.06 31.06a10.1 10.1 0 1 0 14.28-14.28l-31.06-31.06a10 10 0 0 0-6.37-2.93M85.25 29a55.26 55.26 0 1 1 0 110.51 55.26 55.26 0 0 1 0-110.51m41.56 97.5.68-.69a6.1 6.1 0 0 1 8.27.33l31.06 31.06a6.1 6.1 0 1 1-8.62 8.62l-31.06-31.06a6.1 6.1 0 0 1-.33-8.27M176 46a2 2 0 1 0-4 0v4h-4a2 2 0 1 0 0 4h4v4a2 2 0 1 0 4 0v-4h4a2 2 0 1 0 0-4h-4zm15.74 96.37-4.37-4.37-4.37 4.37 4.37 4.37zM12.5 114l8.5 8.5-8.5 8.5-8.5-8.5zm-2.83 8.5 2.83 2.83 2.83-2.83-2.83-2.83z"/></svg>