<svg aria-hidden="true" class="svg-spot spotJobSearchLg" width="96" height="96"  viewBox="0 0 96 96"><path  d="M42 76a31 31 0 1 0 0-62 31 31 0 0 0 0 62M30 37h26a3 3 0 0 1 3 3v14a5 5 0 0 1-5 5H30a3 3 0 0 1-3-3V40a3 3 0 0 1 3-3" opacity=".2"/><path  d="M50.93 18.8a1.5 1.5 0 0 0-1.5 2.61 22 22 0 0 1 10.64 14.75 1.5 1.5 0 0 0 2.94-.59 25 25 0 0 0-12.08-16.76M37.6 17.43c0-.83.68-1.5 1.5-1.5q2.38.02 4.7.47a1.5 1.5 0 0 1-.57 2.95q-2.05-.4-4.14-.41a1.5 1.5 0 0 1-1.5-1.51M30 30.45c0-1.9 1.55-3.45 3.45-3.45h11.1c1.9 0 3.45 1.55 3.45 3.45V32h4.55c1.9 0 3.45 1.55 3.45 3.45v17.1c0 1.9-1.55 3.45-3.45 3.45h-27.1A3.45 3.45 0 0 1 22 52.55v-17.1c0-1.9 1.55-3.45 3.45-3.45H30zM48 53h4.55c.25 0 .45-.2.45-.45v-17.1c0-.25-.2-.45-.45-.45H48zm-3-18H33v18h12zm-19.55 0c-.25 0-.45.2-.45.45v17.1c0 .25.2.45.45.45H30V35zM33 32h12v-1.55c0-.25-.2-.45-.45-.45h-11.1c-.25 0-.45.2-.45.45zm6-23.5a32.5 32.5 0 1 0 19.45 58.54 6 6 0 0 0 1.67 3.2L77.1 87.21a6 6 0 1 0 8.49-8.48L68.6 61.76a6 6 0 0 0-3.3-1.68A32.5 32.5 0 0 0 39 8.5M9.5 41a29.5 29.5 0 1 1 59 0 29.5 29.5 0 0 1-59 0m52.74 27.12a3 3 0 1 1 4.25-4.24l16.97 16.97a3 3 0 0 1-4.25 4.24z"/></svg>