<svg aria-hidden="true" class="svg-spot spotLocation" width="48" height="48"  viewBox="0 0 48 48"><path  d="M25.17 23.92c1.67-2.92 5.81-10.46 5.81-13.33A6.5 6.5 0 0 0 24.5 4C20.95 4 18 7 18 10.6c0 2.86 4.14 10.4 5.8 13.32a.78.78 0 0 0 1.37 0M13.4 39.24l8.37 5.02a.81.81 0 0 0 1.23-.7V28.24q0-.23-.13-.43l-5.75-9.1a1 1 0 0 0-.32-.3l-2.63-1.31a.8.8 0 0 0-1.17.72v20.73q.01.45.4.7m33.21-12.49-9.88-6a.81.81 0 0 0-1.23.68V39.6q0 .4.33.65l9.88 7.3A.8.8 0 0 0 47 46.9V27.46a.8.8 0 0 0-.39-.7M11 30a2 2 0 1 1-4 0 2 2 0 0 1 4 0m-2 8a2 2 0 1 0 0-4 2 2 0 0 0 0 4" opacity=".2"/><path  d="M22.5 5a3.5 3.5 0 1 0 0 7 3.5 3.5 0 0 0 0-7M21 8.5a1.5 1.5 0 1 1 3 0 1.5 1.5 0 0 1-3 0m2.34 15.04.02-.03.05-.08.96-1.54a84 84 0 0 0 2.26-3.97 48 48 0 0 0 2.29-4.85A13 13 0 0 0 30 8.59c0-2.43-.79-4.36-2.2-5.68A7.6 7.6 0 0 0 22.5 1 7.3 7.3 0 0 0 15 8.6c0 1.3.47 2.89 1.08 4.47a48 48 0 0 0 2.29 4.85 84 84 0 0 0 3.22 5.5l.05.1.02.02a1 1 0 0 0 1.68 0M22.5 3c1.64 0 3 .49 3.94 1.37S28 6.61 28 8.6c0 .9-.35 2.21-.95 3.75a46 46 0 0 1-2.18 4.64 83 83 0 0 1-2.37 4.13 82 82 0 0 1-2.37-4.13 43 43 0 0 1-2.18-4.64c-.6-1.54-.95-2.84-.95-3.75A5.3 5.3 0 0 1 22.5 3m-.84 20.54.84-.54zm.84-.54.84.54zM10 29a2 2 0 1 1-4 0 2 2 0 0 1 4 0m-2 8a2 2 0 1 0 0-4 2 2 0 0 0 0 4m25.54-22.84a1 1 0 0 0-1.15.05l-4.5 3.5a1 1 0 0 0 1.22 1.58L32 17.04V37l-8 6V28a1 1 0 1 0-2 0v15.23l-7.96-4.77V17.71l1.8 1.55a1 1 0 0 0 1.31-1.52l-3.5-3a1 1 0 0 0-1.2-.08l-10 6.5A1 1 0 0 0 2 22v23a1 1 0 0 0 1.51.86l9.49-5.7 9.49 5.7a1 1 0 0 0 1.11-.06l9.4-7.06 10.41 7.57A1 1 0 0 0 45 45.5V22a1 1 0 0 0-.46-.84zM34 36.99V16.82l9 5.73v20.99zM12.04 17.31v21.1L4 43.23V22.54z"/></svg>