<svg aria-hidden="true" class="svg-spot spotNetwork" width="48" height="48"  viewBox="0 0 48 48"><path  d="M26 11a3 3 0 1 0 0-6 3 3 0 0 0 0 6m0 36a3 3 0 1 0 0-6 3 3 0 0 0 0 6m19-12a3 3 0 1 1-6 0 3 3 0 0 1 6 0m-3-15a3 3 0 1 0 0-6 3 3 0 0 0 0 6m-29-3a3 3 0 1 1-6 0 3 3 0 0 1 6 0m-3 21a3 3 0 1 0 0-6 3 3 0 0 0 0 6m19-12a3 3 0 1 1-6 0 3 3 0 0 1 6 0" opacity=".2"/><path  d="m10.98 35.67 9.23 5.04a4 4 0 1 0 7.4-.45l9.11-4.97A4 4 0 1 0 41 29.13V18.87a4 4 0 1 0-3.22-7.2l-9.82-6.24a4 4 0 0 0-7.92 0l-9.82 6.24A4 4 0 1 0 7 18.87v10.26a4 4 0 1 0 3.98 6.54M24 4a2 2 0 1 1 0 4 2 2 0 0 1 0-4m-3.24 17.66-3.92-2.5 5.4-9.56q.37.16.76.27v10.26a4 4 0 0 0-2.24 1.53m-5.61-3.57-3.28-2.08a4 4 0 0 0-.3-2.82l8.77-5.58a4 4 0 0 0 .36.65zm-.99 1.74L9 28.97v-10.1a4 4 0 0 0 1.9-1.11zM10.7 30.04l5.16-9.13 4.17 2.65a4 4 0 0 0 0 .88l-9.12 5.8zm16.2-8.8a4 4 0 0 0-1.9-1.11v-10.1l5.16 9.14zm.98 1.75 3.28-2.08 5.45 9.65-8.73-5.55a4 4 0 0 0 0-2.02m4.97-3.16 3.92-2.49A4 4 0 0 0 39 18.87v10.26q-.39.1-.75.27zM26.69 8.96q.63-.58.97-1.35l8.77 5.58a4 4 0 0 0-.4 2.25l-4.18 2.65zM25 27.87a4 4 0 0 0 1.9-1.11L35.14 32H25zM23 32H11.87l8.89-5.66A4 4 0 0 0 23 27.87zm-10.91 2H23v4.13a4 4 0 0 0-1.68.9zM10 33a2 2 0 1 1-4 0 2 2 0 0 1 4 0m15 1h9.91l-8.63 4.71a4 4 0 0 0-1.28-.58zm1-10a2 2 0 1 1-4 0 2 2 0 0 1 4 0m-16-9a2 2 0 1 1-4 0 2 2 0 0 1 4 0m30 2a2 2 0 1 1 0-4 2 2 0 0 1 0 4M22 42a2 2 0 1 1 4 0 2 2 0 0 1-4 0m18-11a2 2 0 1 1 0 4 2 2 0 0 1 0-4"/></svg>