<svg aria-hidden="true" class="svg-spot spotNetworkLg" width="96" height="96"  viewBox="0 0 96 96"><path  d="M51 17a6 6 0 1 0 0-12 6 6 0 0 0 0 12m0 78a6 6 0 1 0 0-12 6 6 0 0 0 0 12m41-65a6 6 0 1 1-12 0 6 6 0 0 1 12 0m-75 6a6 6 0 1 0 0-12 6 6 0 0 0 0 12m6 34a6 6 0 1 1-12 0 6 6 0 0 1 12 0m28-14a6 6 0 1 0 0-12 6 6 0 0 0 0 12m41 14a6 6 0 1 1-12 0 6 6 0 0 1 12 0" opacity=".2"/><path  d="M39.5 9.5a8 8 0 0 1 16-.37l22.79 13.3A8 8 0 1 1 85 36.36v23.28a8 8 0 1 1-7.68 12.94l-21.9 12.8q.08.55.08 1.12a8 8 0 1 1-15.79-1.83L20.18 72.9A8 8 0 1 1 12 60.64V35.36a8 8 0 1 1 7.36-13.3l20.19-11.67q-.05-.44-.05-.89m8-5a5 5 0 1 0 0 10 5 5 0 0 0 0-10M21.1 66H46v-9.64a8 8 0 0 1-4.94-3.1L20.6 64.81q.3.56.5 1.18M46 69H21.48a8 8 0 0 1-.14 1.1l19.6 11.81A8 8 0 0 1 46 78.64zm3 0v9.64a8 8 0 0 1 5.42 3.85l21.46-12.54q-.15-.47-.24-.95zm26.64-3q.14-.72.4-1.38l-21.62-12.1A8 8 0 0 1 49 56.36V66zm1.98-3.93.03-.02.02-.03L64.3 39.4l-9.68 5.42a8 8 0 0 1 .81 4.82zm2.5-1.82q.89-.42 1.88-.61V36.36a8 8 0 0 1-5.42-3.84l-9.67 5.41zm-4.54-30.61a8 8 0 0 1 .82-4.84L55 12.31a8 8 0 0 1-1.67 2.67l12.05 20.37zm-12.82 7.18L50.88 16.75q-.89.42-1.88.61v23.28a8 8 0 0 1 3.72 1.8zM46 17.36l-.32-.07L34.2 36.8l8.94 5A8 8 0 0 1 46 40.65zm-3.07-1.3a8 8 0 0 1-2.46-2.73L20.96 24.6a8 8 0 0 1 .28 4.93l10.33 5.8zM30.05 37.91l-10.1-5.66A8 8 0 0 1 15 35.36v25.28q.73.15 1.41.4zm-10.8 24.23 20.51-11.6a8 8 0 0 1 1.14-6.56l-8.23-4.6zM42.5 86.5a5 5 0 1 0 10 0 5 5 0 0 0-10 0m41-24a5 5 0 1 0 0 10 5 5 0 0 0 0-10m-5-34a5 5 0 1 0 10 0 5 5 0 0 0-10 0m-65-6a5 5 0 1 0 0 10 5 5 0 0 0 0-10m-5 46a5 5 0 1 0 10 0 5 5 0 0 0-10 0m39-25a5 5 0 1 0 0 10 5 5 0 0 0 0-10"/></svg>