<svg aria-hidden="true" class="svg-spot spotNetworkXL" width="196" height="196"  viewBox="0 0 196 196"><path  d="M5 92.5c-.48 6.77 3.54 35.35 14.3 50.33q1.34 1.89 2.97 4.3c10.03 14.8 28.81 42.51 71.06 44.53 46.8 2.22 64.02-13.85 78.65-39.33s30.43-76.78 7.49-117.04S50.2-5.1 27.32 26.4C6.5 55.06 5.49 80.67 5.12 90.17zM108 40a9 9 0 1 1-18 0 9 9 0 0 1 18 0m51 28a9 9 0 1 1-18 0 9 9 0 0 1 18 0m0 60a9 9 0 1 1-18 0 9 9 0 0 1 18 0m-50-30a9 9 0 1 1-18 0 9 9 0 0 1 18 0m0 58a9 9 0 1 1-18 0 9 9 0 0 1 18 0m-52-28a9 9 0 1 1-18 0 9 9 0 0 1 18 0m-1-60a9 9 0 1 1-18 0 9 9 0 0 1 18 0" opacity=".07"/><path  d="M105.5 51c4.7 0 8.5-4.03 8.5-9s-3.8-9-8.5-9-8.5 4.03-8.5 9 3.8 9 8.5 9m0 118c4.7 0 8.5-4.03 8.5-9s-3.8-9-8.5-9-8.5 4.03-8.5 9 3.8 9 8.5 9m58.5-38c0 4.97-3.8 9-8.5 9s-8.5-4.03-8.5-9 3.8-9 8.5-9 8.5 4.03 8.5 9m-8.5-51c4.7 0 8.5-4.03 8.5-9s-3.8-9-8.5-9-8.5 4.03-8.5 9 3.8 9 8.5 9M61 71c0 4.97-3.8 9-8.5 9S44 75.97 44 71s3.8-9 8.5-9 8.5 4.03 8.5 9m-8.5 69c4.7 0 8.5-4.03 8.5-9s-3.8-9-8.5-9-8.5 4.03-8.5 9 3.8 9 8.5 9m61.5-39a9 9 0 1 1-18 0 9 9 0 0 1 18 0" opacity=".2"/><path  d="m169 20 4 4-4 4-4-4zm-69.5 9C93.6 29 89 34.03 89 40q0 .42.03.83l-33.8 19.72A10.2 10.2 0 0 0 47.5 57C41.6 57 37 62.03 37 68c0 5.45 3.83 10.12 9 10.89v38.22c-5.17.77-9 5.44-9 10.89 0 5.97 4.6 11 10.5 11 3.4 0 6.37-1.67 8.28-4.23l33.36 19.46Q89 155.1 89 156c0 5.97 4.6 11 10.5 11s10.5-5.03 10.5-11q0-1.19-.23-2.3l32.45-18.93a10.3 10.3 0 0 0 8.28 4.23c5.9 0 10.5-5.03 10.5-11 0-5.1-3.35-9.5-8-10.69V78.7c4.65-1.18 8-5.6 8-10.69 0-5.97-4.6-11-10.5-11-3.1 0-5.82 1.38-7.73 3.55L109.92 41.4q.08-.69.08-1.39c0-5.97-4.6-11-10.5-11M93 40c0-3.98 3.02-7 6.5-7s6.5 3.02 6.5 7-3.02 7-6.5 7-6.5-3.02-6.5-7m5 85H57.6q-.14-.5-.32-1l34-19.3a11 11 0 0 0 6.72 4.12zm-40.04 4H98v16.11c-3.23.48-5.95 2.5-7.52 5.27l-32.93-19.2q.3-1.05.4-2.18m82.08 0q.1 1.12.4 2.17l-32.17 18.78a10.5 10.5 0 0 0-6.27-4.64V129zM102 125v-16.18a11 11 0 0 0 6.4-3.72l32.5 18.44q-.3.7-.5 1.46zm8.39-23.38a11 11 0 0 0-.32-8.06l14.26-8.1 19.87 33.73q-.58.46-1.1 1zM127.8 83.5l14.7-8.35a10.3 10.3 0 0 0 6.5 3.75v38.22q-.63.1-1.23.26zm-2.03-3.45-18.95-32.17q1.12-1.14 1.87-2.56L140.71 64a11.4 11.4 0 0 0-.13 7.65zm-22.24-29.88 18.76 31.85-14.5 8.24a11 11 0 0 0-5.8-3.07v-36.5q.8-.2 1.54-.52M98 87.18a11 11 0 0 0-6.15 3.43l-15.15-8.6 18.76-31.85q1.2.53 2.54.73zm-24.78-7.14-15.66-8.89a11.5 11.5 0 0 0-.28-7.16l32.8-19.14a11 11 0 0 0 2.09 3.02zm-17.43-5.3 15.4 8.75-20.12 34.16q-.52-.2-1.07-.34V78.7c2.35-.6 4.37-2.02 5.8-3.94m-.55 45.83q-.37-.43-.78-.8l20.2-34.3 15.08 8.55a11 11 0 0 0-.28 7.12zM47.5 75c-3.48 0-6.5-3.02-6.5-7s3.02-7 6.5-7 6.5 3.02 6.5 7-3.02 7-6.5 7M157 68c0 3.98-3.02 7-6.5 7s-6.5-3.02-6.5-7 3.02-7 6.5-7 6.5 3.02 6.5 7m-57.5 81c3.48 0 6.5 3.03 6.5 7s-3.02 7-6.5 7-6.5-3.03-6.5-7 3.02-7 6.5-7m44.5-21c0-3.97 3.02-7 6.5-7s6.5 3.03 6.5 7-3.02 7-6.5 7-6.5-3.03-6.5-7m-96.5-7c3.48 0 6.5 3.03 6.5 7s-3.02 7-6.5 7-6.5-3.03-6.5-7 3.02-7 6.5-7M93 98a7 7 0 1 1 14 0 7 7 0 0 1-14 0m-48 71a2 2 0 1 0-4 0v4h-4a2 2 0 1 0 0 4h4v4a2 2 0 1 0 4 0v-4h4a2 2 0 1 0 0-4h-4zM17.5 40l8.5 8.5-8.5 8.5L9 48.5zm-2.83 8.5 2.83 2.83 2.83-2.83-2.83-2.83z"/></svg>