<svg aria-hidden="true" class="svg-spot spotPageLg" width="96" height="96"  viewBox="0 0 96 96"><path  d="M9 16a2 2 0 0 0-2 2v9c0 1.1.9 2 2 2h84a2 2 0 0 0 2-2v-9a2 2 0 0 0-2-2zm12 27a2 2 0 0 0-2 2v9c0 1.1.9 2 2 2h60a2 2 0 0 0 2-2v-9a2 2 0 0 0-2-2z" opacity=".2"/><path  d="M19 18.5a1.5 1.5 0 1 1-3 0 1.5 1.5 0 0 1 3 0M10.5 20a1.5 1.5 0 1 0 0-3 1.5 1.5 0 0 0 0 3M14 39.5c0-.83.67-1.5 1.5-1.5h63c.83 0 1.5.67 1.5 1.5v12c0 .83-.67 1.5-1.5 1.5h-63a1.5 1.5 0 0 1-1.5-1.5zM67 41H17v9h50.09a2 2 0 0 1-.09-.5zm2.91 9H77v-9h-7v8.5q0 .27-.09.5M14 60.5c0-.83.67-1.5 1.5-1.5h41a1.5 1.5 0 0 1 0 3h-41a1.5 1.5 0 0 1-1.5-1.5m1.5 6.5a1.5 1.5 0 0 0 0 3h26a1.5 1.5 0 0 0 0-3zM2 14.59C2 12.6 3.6 11 5.59 11H88.4c2 0 3.6 1.6 3.6 3.59V80.4c0 2-1.6 3.6-3.59 3.6H5.6A3.6 3.6 0 0 1 2 80.41zm3 0V23h84v-8.41a.6.6 0 0 0-.59-.59H5.6a.6.6 0 0 0-.59.59M89 26H5v54.41c0 .33.26.59.59.59H88.4c.33 0 .59-.26.59-.59z"/></svg>