<svg aria-hidden="true" class="svg-spot spotPencilLg" width="96" height="96"  viewBox="0 0 96 96"><path  d="M63.05 10.38a.67.67 0 0 0-.94.17L14.02 79.88q-.1.15-.11.32l-1.1 10.42c-.05.53.5.9.97.68l9.53-4.57q.16-.08.26-.23l48.09-69.32a.67.67 0 0 0-.17-.94z" opacity=".2"/><path  d="M57.38 5.86a2.17 2.17 0 0 1 3.03-.55l8.44 5.86c.99.68 1.23 2.04.55 3.02L21.3 83.52q-.32.47-.84.72l-9.53 4.57a2.17 2.17 0 0 1-3.1-2.18L8.91 76.2q.06-.54.38-1.01zm9.08 7.3-7.08-4.91-3.5 5.05 7.08 4.91zm-5.21 7.52-7.09-4.91L13.07 75l7.09 4.91zM10.97 85.47l7.05-3.38-6.25-4.33zm70.45-.5a1.5 1.5 0 1 0-1.34-2.69c-5.2 2.6-10.44 4.91-16.02 6.16-3.93.88-7.74.63-11.61-.06q-2.91-.54-5.88-1.29l-.58-.14q-2.7-.67-5.47-1.24c-5.72-1.14-13.01-.95-18.58 1.27a1.5 1.5 0 0 0 1.12 2.79c4.9-1.96 11.57-2.18 16.87-1.12q2.67.56 5.36 1.22l.58.14c1.99.48 4 .95 6.05 1.32 4.08.73 8.33 1.04 12.8.04 5.93-1.33 11.44-3.77 16.7-6.4"/></svg>