<svg aria-hidden="true" class="svg-spot spotPersonVerified" width="48" height="48"  viewBox="0 0 48 48"><path  d="M34 15a9 9 0 0 1-5.54 8.3c4.25.74 6.78 2.69 8.3 5.45a.4.4 0 0 0-.16.19l-2.49 5.8a.4.4 0 0 1-.4.26h-5.4c-.42 0-.6.53-.26.79l4.71 3.53c.15.11.21.3.16.46L31.53 45H11c0-10.48 0-20.2 10.33-21.78A9 9 0 1 1 34 15m-.6 30H39v-1.33l-1.72-1.44a.44.44 0 0 0-.56 0z" opacity=".2"/><path  d="M12 12a10 10 0 0 0 4.7 8.48q-1.8.42-3.21 1.17a10.4 10.4 0 0 0-4.6 4.98 22 22 0 0 0-1.65 7.07A95 95 0 0 0 7 42v1h20a1 1 0 0 0 0-2H9c0-2.53.03-4.93.23-7.12a20 20 0 0 1 1.48-6.41 8.4 8.4 0 0 1 3.72-4.05c1.72-.92 4.05-1.46 7.26-1.42H22c3.36.07 5.75.62 7.48 1.53 1.7.9 2.82 2.19 3.61 3.89a1 1 0 1 0 1.82-.84 10 10 0 0 0-4.5-4.82q-1.42-.75-3.26-1.18A10 10 0 1 0 12 12m10-8a8 8 0 1 1 0 16 8 8 0 0 1 0-16m16.32 24.54a1.44 1.44 0 0 0-2.64 0L33.34 34h-5.03a1.44 1.44 0 0 0-.86 2.59l4.41 3.3-1.47 5.53a1.44 1.44 0 0 0 2.3 1.47L37 43.3l4.3 3.59c1.08.9 2.67-.12 2.31-1.47l-1.47-5.52 4.41-3.31c1.1-.83.52-2.59-.86-2.59h-5.03zm-3.29 6.59 1.97-4.6 1.97 4.6c.22.53.74.87 1.32.87H44l-3.36 2.52c-.47.35-.68.96-.53 1.52l1.11 4.18-3.3-2.76a1.44 1.44 0 0 0-1.84 0l-3.3 2.76 1.11-4.18a1.4 1.4 0 0 0-.53-1.52L30 36h3.71c.58 0 1.1-.34 1.32-.87"/></svg>