<svg aria-hidden="true" class="svg-spot spotQuestionXL" width="196" height="196"  viewBox="0 0 196 196"><path  d="M100.83 185.71c12.62.22 32.76-8.83 46.05-19.84q1.67-1.37 3.82-3.03c13.17-10.31 37.84-29.61 37-69.16-.93-43.8-17.04-58.85-41.76-70.87C121.2 10.8 72.3-.66 36.2 23.32s-29.4 123.2 1.47 142.54c30.82 19.3 50.46 19.64 63.09 19.85zM39 162V58.75A14.8 14.8 0 0 1 53.75 44h88.5A14.9 14.9 0 0 1 157 58.75v66.38c0 8.6-6.58 13.87-14.75 13.87H61.13z" opacity=".07"/><path  d="M56 52a9 9 0 0 0-9 9v99l15.73-16.4.6-.6h82.7c8.28 0 14.97-6.72 14.97-15V67a15 15 0 0 0-15-15zm72.64 80.2c-4.62-1.44-10.72-3.9-14.22-7.4-3.8 1.5-7.92 2.2-12.32 2.2a31.4 31.4 0 0 1-22.54-8.4c-5.51-5.9-8.22-13.8-8.22-23.6-.5-8.6 2.4-17 8.12-23.5A29.6 29.6 0 0 1 101.6 63c8.11-.4 16.2 2.77 21.93 8.5 5.51 5.7 8.12 13.6 8.12 23.5 0 5.2-.8 9.9-2.2 13.9-1 2.5-2.31 5-4.11 7.3 2.93 1.86 6.16 3.02 9.41 4.2z" opacity=".2"/><path  d="m169 29-4-4-4 4 4 4zm14 11a2 2 0 0 1 2 2v4h4a2 2 0 1 1 0 4h-4v4a2 2 0 1 1-4 0v-4h-4a2 2 0 1 1 0-4h4v-4c0-1.1.9-2 2-2M71.5 173l8.5 8.5-8.5 8.5-8.5-8.5zm-2.83 8.5 2.83 2.83 2.83-2.83-2.83-2.83zm35.05-111.42a15 15 0 0 1 5.27 3.79q4.42 4.98 4.42 15.04c0 3.25-.36 6.13-1.18 8.63a20 20 0 0 1-1.16 3.04 17 17 0 0 1-2.15 3.38 40 40 0 0 0-11.07-5.9l-3.32 6.64a30 30 0 0 1 3.67 1.6q1.8.93 3.56 2.08c-1.47.52-3.1.81-4.8.81q-1.2 0-2.35-.16a14.3 14.3 0 0 1-8.85-4.85q-4.43-5.1-4.43-15.27 0-9.95 4.43-15.04a14.8 14.8 0 0 1 11.58-4.94c2.18-.1 4.36.3 6.38 1.15m-7.88 23.06 3.32 1.14q4.5 1.55 8.56 4.03.38-.88.68-1.9l.01-.05.02-.05q.98-2.98.98-7.4c0-6.21-1.37-10.1-3.41-12.38a10.7 10.7 0 0 0-8.5-3.6h-.31a10.8 10.8 0 0 0-8.43 3.58c-2.06 2.39-3.43 6.3-3.43 12.4 0 6.28 1.38 10.26 3.43 12.63q.93 1.05 1.99 1.79zm14.1-36.21a31 31 0 0 0-12.53-2.04 31.3 31.3 0 0 0-23.47 9.06l-.1.1-.08.1a34.6 34.6 0 0 0-8.6 24.89c.03 10.18 2.82 18.62 8.71 24.77l.04.04.05.04a31.7 31.7 0 0 0 23.93 9.04c4.2-.01 8.26-.64 12.02-2l5.44 3.63q.32.21.63.38l.44.23a28 28 0 0 0 5.83 2.47l3.15.92 8-15.34-4.36-1.53q-2.55-.9-4.92-2.17a30 30 0 0 0 3.07-6l.01-.04.02-.03a44 44 0 0 0 2.29-14.54c0-10.24-2.8-18.71-8.7-24.89l-.04-.03-.03-.03a31 31 0 0 0-10.8-7.03m10.77 50.49a32 32 0 0 1-2.43 3.18 39 39 0 0 0 9.44 4.86l-4.35 8.34a24 24 0 0 1-5.16-2.22c-.4-.12-2.43-1.5-6.17-4.04l-1.65-1.12a31 31 0 0 1-12.61 2.51 27.7 27.7 0 0 1-21.02-7.9c-5.02-5.23-7.6-12.6-7.6-22.12a30.6 30.6 0 0 1 7.6-22.12 27.3 27.3 0 0 1 20.65-7.9 27 27 0 0 1 20.5 7.9c5.02 5.24 7.6 12.61 7.6 22.12 0 5.02-.74 9.44-2.07 13.2a26 26 0 0 1-2.73 5.3M39 58.75V162l22.13-23h81.12c8.17 0 14.75-5.27 14.75-13.87V58.75A14.9 14.9 0 0 0 142.25 44h-88.5A14.8 14.8 0 0 0 39 58.75M142.25 135H59.42L43 152.07V58.75A10.8 10.8 0 0 1 53.75 48h88.5A10.9 10.9 0 0 1 153 58.75v66.38c0 3.21-1.2 5.58-2.98 7.18-1.84 1.65-4.53 2.69-7.77 2.69"/></svg>