<svg aria-hidden="true" class="svg-spot spotRefresh" width="48" height="48"  viewBox="0 0 48 48"><circle cx="25.5" cy="27.5" r="17.5"  opacity=".2"/><path  d="m41.28 10.01-1.63-.44a1 1 0 0 0-1.24.68 1 1 0 0 0 .71 1.22l3.89 1.07c.28.08.6.03.84-.13q.38-.27.42-.73l.34-3.74a1 1 0 0 0-.91-1.08 1 1 0 0 0-1.1.89l-.05.59q-.3-.42-.67-.88a14.5 14.5 0 0 0-6.36-4.6 1 1 0 0 0-.66 1.89c2.44.84 4.25 2.5 5.47 3.98q.56.7.95 1.28M24 14a1 1 0 1 0-2 0v12.62l8.47 5.23a1 1 0 0 0 1.06-1.7L24 25.5zm-.5-8a18.5 18.5 0 1 0 0 37 18.5 18.5 0 0 0 0-37M7 24.5a16.5 16.5 0 1 1 33 0 16.5 16.5 0 0 1-33 0M4.15 36.6a1 1 0 0 0-.42.72l-.34 3.74a1 1 0 0 0 .91 1.08 1 1 0 0 0 1.1-.89l.05-.59q.3.42.67.88a14.5 14.5 0 0 0 6.36 4.6 1 1 0 0 0 .66-1.89 12.5 12.5 0 0 1-5.47-3.98q-.56-.7-.95-1.28l1.63.44a1 1 0 0 0 1.24-.68 1 1 0 0 0-.71-1.22l-3.89-1.07c-.28-.08-.6-.03-.84.13"/></svg>