<svg aria-hidden="true" class="svg-spot spotStarXL" width="196" height="196"  viewBox="0 0 196 196"><path  d="M99.98 187.51c11.44-1.7 32.1-4.8 45-15.6q1.76-1.45 4.02-3.22c13.87-10.97 39.84-31.5 39.53-73.75-.34-46.8-16.91-62.91-42.5-75.83C120.44 6.2 69.67-6.2 31.71 19.3s-32.38 131.5-.5 152.25c31.9 20.75 55.47 18.03 66.05 16.38zM96.79 42.13 106.13 74h34.42c3.57 0 4.89 4.69 1.85 6.55L114.2 97.8l11.45 33.92a3.53 3.53 0 0 1-5.46 3.97l-26.76-19.82-28.51 18.78a3.53 3.53 0 0 1-5.3-4.09l10.82-32.05-26.46-18.06a3.53 3.53 0 0 1 2-6.45h33.35l10.72-32a3.53 3.53 0 0 1 6.74.13" opacity=".07"/><path  d="M52.03 37.18a3.54 3.54 0 0 1 1.5-4.74c1.71-.88 3.8-.2 4.68 1.53l3.88 7.66c.88 1.73.2 3.85-1.5 4.74-1.72.88-3.81.2-4.69-1.53zm-19.42-.32a3.53 3.53 0 0 0-.5 4.94l11 13.64a3.47 3.47 0 0 0 4.91.53 3.53 3.53 0 0 0 .5-4.94l-11-13.64a3.47 3.47 0 0 0-4.9-.53m-7.61 23.18a3.54 3.54 0 0 0 1.25 4.82l7.75 4.6c1.66 1 3.8.45 4.77-1.22a3.54 3.54 0 0 0-1.25-4.82l-7.75-4.6a3.46 3.46 0 0 0-4.77 1.22m134.85-.49a3.54 3.54 0 0 1-1.22 4.83l-8.95 5.41c-1.66 1-3.8.47-4.78-1.2a3.54 3.54 0 0 1 1.22-4.82l8.95-5.42c1.66-1 3.8-.46 4.78 1.2m-8.21-14.51a3.54 3.54 0 0 0-.02-4.97 3.46 3.46 0 0 0-4.93.06l-12.45 12.76a3.54 3.54 0 0 0 .02 4.97 3.46 3.46 0 0 0 4.93-.06zm-21.52-11.33a3.54 3.54 0 0 1 1.99 4.56l-3.2 8.4a3.46 3.46 0 0 1-4.5 2.03 3.54 3.54 0 0 1-1.99-4.56l3.2-8.4a3.46 3.46 0 0 1 4.5-2.03m-90.58 91.43a3.5 3.5 0 0 0 1.58-4.7 3.5 3.5 0 0 0-4.68-1.58l-9.5 4.75a3.5 3.5 0 0 0-1.57 4.7 3.5 3.5 0 0 0 4.68 1.57zM33.48 150a3.5 3.5 0 0 1-.3-4.95l12-13.6a3.5 3.5 0 0 1 4.94-.3 3.5 3.5 0 0 1 .3 4.94l-12 13.6a3.5 3.5 0 0 1-4.94.31m20.04 3.65a3.49 3.49 0 1 0 6.64 2.16l2.48-7.7a3.49 3.49 0 1 0-6.64-2.16zM161.9 128.1a3.5 3.5 0 0 0-.98-4.87l-7.53-5.04a3.5 3.5 0 0 0-4.84.97 3.5 3.5 0 0 0 .98 4.87l7.53 5.04a3.5 3.5 0 0 0 4.84-.97m-7.4 16.2a3.5 3.5 0 0 1 .11 4.97 3.5 3.5 0 0 1-4.94.1l-12.8-12.29a3.5 3.5 0 0 1-.12-4.96 3.5 3.5 0 0 1 4.94-.1zm-22.35 15.38a3.5 3.5 0 0 0 2-4.54l-3.22-8.37a3.48 3.48 0 1 0-6.5 2.53l3.21 8.37a3.5 3.5 0 0 0 4.51 2.01M100.36 52.9a3 3 0 0 0-5.72 0l-8.36 26.03A3 3 0 0 1 83.43 81H55.04a3 3 0 0 0-1.79 5.4l22.72 16.94a3 3 0 0 1 1.06 3.32l-9.25 28.74a3 3 0 0 0 4.6 3.37l24.13-17.14a3 3 0 0 1 3.53.04l22.42 16.71a3 3 0 0 0 4.65-3.32l-9.14-28.4a3 3 0 0 1 1.06-3.32l22.72-16.94a3 3 0 0 0-1.8-5.4h-28.38a3 3 0 0 1-2.85-2.08z" opacity=".2"/><path  d="M66 10.5 57.5 2 49 10.5l8.5 8.5zm-8.5 2.83-2.83-2.83 2.83-2.83 2.83 2.83zM83 6l-4-4-4 4 4 4zm7.05 36a3.53 3.53 0 0 1 6.74.13L106.13 74h34.42c3.57 0 4.89 4.69 1.85 6.55L114.2 97.8l11.45 33.92a3.53 3.53 0 0 1-5.46 3.97l-26.76-19.82-28.51 18.78a3.53 3.53 0 0 1-5.3-4.09l10.82-32.05-26.46-18.06a3.53 3.53 0 0 1 2-6.45h33.35zm3.32 2.68-10.35 30.9A3.5 3.5 0 0 1 79.67 78h-32.2l25.51 17.4a3.54 3.54 0 0 1 1.36 4.06l-10.5 31.1 27.66-18.21a3.5 3.5 0 0 1 4.05.11l25.83 19.14-11.09-32.87a3.5 3.5 0 0 1 1.5-4.15L138.9 78h-33.1a3.5 3.5 0 0 1-3.4-2.54zM119 177a2 2 0 1 0-4 0v4h-4a2 2 0 1 0 0 4h4v4a2 2 0 1 0 4 0v-4h4a2 2 0 1 0 0-4h-4z"/></svg>