<svg aria-hidden="true" class="svg-spot spotStar" width="48" height="48"  viewBox="0 0 48 48"><path  d="M24.83 7.1a1.1 1.1 0 0 1 2.09 0l4.26 13.2c.14.46.56.76 1.04.76h13.8a1.1 1.1 0 0 1 .65 1.98L35.5 31.22a1.1 1.1 0 0 0-.4 1.22l4.27 13.23a1.1 1.1 0 0 1-1.68 1.22l-11.16-8.17a1.1 1.1 0 0 0-1.29 0L14.07 46.9a1.1 1.1 0 0 1-1.68-1.22l4.27-13.23a1.1 1.1 0 0 0-.4-1.22L5.08 23.04a1.1 1.1 0 0 1 .64-1.98h13.81c.48 0 .9-.3 1.04-.75z" opacity=".2"/><path  d="M21.51 3.87a2.1 2.1 0 0 1 3.98 0l4.26 13.07a.1.1 0 0 0 .1.06H43.7a2.1 2.1 0 0 1 1.25 3.77L33.7 29.15a.1.1 0 0 0-.03.1l4.27 13.23a2.1 2.1 0 0 1-3.23 2.34l-11.16-8.16a.1.1 0 0 0-.1 0l-11.16 8.16a2.1 2.1 0 0 1-3.23-2.34l4.27-13.23a.1.1 0 0 0-.03-.1L2.05 20.77A2.1 2.1 0 0 1 3.3 17h13.86a.1.1 0 0 0 .09-.06zm1.92.59-.02.03-4.26 13.07a2.1 2.1 0 0 1-2 1.44H3.27l-.02.01-.03.05v.08l.03.03 11.25 8.37a2.1 2.1 0 0 1 .74 2.32L10.97 43.1v.06l.04.04.05.03h.02l.04-.03 11.15-8.16a2.1 2.1 0 0 1 2.48 0L35.9 43.2l.04.02h.02l.05-.02.04-.04v-.06l-4.27-13.24a2.1 2.1 0 0 1 .74-2.32l11.25-8.37.03-.03v-.08l-.03-.05h-.02L43.7 19H29.84c-.9 0-1.7-.58-1.99-1.44L23.6 4.49l-.02-.03-.01-.01-.06-.02-.06.02z"/></svg>