<svg aria-hidden="true" class="svg-spot spotTadaXL" width="196" height="196"  viewBox="0 0 196 196"><path  d="m56.69 173.59.47.1c9.98 2.2 20.34 2.06 34 1.88 11-.15 24.17-.32 41.01.68 37.74 2.24 42.37-10.41 56.83-54.25 14.46-43.83-7.72-75.55-41.5-103-28.79-23.4-70.1-6.26-92.64 3.1-3.9 1.61-7.24 3-9.86 3.9-17.7 6.1-30.47 28.42-33.82 83.88-3.25 53.72 39.4 62.46 45.5 63.7m67.1-103.42c13.6 13.6 22.61 27.6 27.89 38.4a74 74 0 0 1 5.22 13.48c.44 1.7.69 3.2.7 4.38.02.58-.03 1.2-.2 1.76a2.8 2.8 0 0 1-1.48 1.8l-.13.06L50.3 160.68a12.3 12.3 0 0 1-12.8-2.5 12.2 12.2 0 0 1-3-12.76L69.52 39.8c.56-1.68 2.26-2.01 3.16-2.08 1.09-.08 2.41.1 3.86.46 2.94.72 6.92 2.28 11.62 4.75 9.44 4.95 22.06 13.7 35.62 27.25" opacity=".07"/><path  d="M117 24c0-2.07-1.43-4-3.5-4s-3.5 1.93-3.5 4v23c0 2.07 1.43 4 3.5 4s3.5-1.93 3.5-4zM89.61 89.58C57.42 48 72.9 44.09 72.9 44.09s21.71 5.23 47 32.71 32.7 50.38 32.7 50.38c-15.97 5.83-52.2-25.54-62.98-37.6M78.81 115c-14.1-13.82-20.88-27.92-20.88-27.92L46.7 119.36s4.05 9.37 12.4 17.5 19.7 12.4 19.7 12.4l35.18-8.54S92.91 128.82 78.81 115M144 79.5c0-2.07 1.93-3.5 4-3.5h23c2.07 0 4 1.43 4 3.5s-1.93 3.5-4 3.5h-23c-2.07 0-4-1.43-4-3.5m16.48-39.38a3.75 3.75 0 1 0-5.3-5.3L130.6 59.36a3.75 3.75 0 1 0 5.3 5.3z" opacity=".2"/><path  d="M137.43 32.41a3.75 3.75 0 1 1-7.5 0 3.75 3.75 0 0 1 7.5 0M30 38a2 2 0 1 0-4 0v4h-4a2 2 0 1 0 0 4h4v4a2 2 0 1 0 4 0v-4h4a2 2 0 1 0 0-4h-4zm62.72 136.03-4.24-4.24-4.25 4.24 4.25 4.24zm81.16-6.8-8.49-8.48-8.49 8.48 8.49 8.49zm-8.49 2.83-2.83-2.83 2.83-2.82 2.83 2.82zM88.17 42.92c9.44 4.95 22.06 13.7 35.62 27.25 13.6 13.6 22.61 27.6 27.89 38.4a74 74 0 0 1 5.22 13.48c.44 1.7.69 3.2.7 4.38.02.58-.03 1.2-.2 1.76a2.8 2.8 0 0 1-1.48 1.8l-.13.06L50.3 160.68a12.3 12.3 0 0 1-12.8-2.5 12.2 12.2 0 0 1-3-12.76L69.52 39.8c.56-1.68 2.26-2.01 3.16-2.08 1.09-.08 2.41.1 3.86.46 2.94.72 6.92 2.28 11.62 4.75m-12.57-.86q-1-.25-1.67-.32.3 1.03.9 2.66c.96 2.72 2.5 6.62 4.81 11.28a129 129 0 0 0 24.4 33.81c12.16 12.17 25.22 21.3 35.24 27.4a187 187 0 0 0 14.11 7.8 25 25 0 0 0-.36-1.65c-.8-3.1-2.4-7.49-4.95-12.71-5.09-10.44-13.86-24.07-27.12-37.33-13.3-13.3-25.6-21.8-34.65-26.54-4.53-2.38-8.19-3.79-10.7-4.4m.46 15.39a111 111 0 0 1-4.63-10.68L61.36 77.13l.01.02.01.02v.02l.05.08.23.5q.33.69 1 1.97c.92 1.72 2.32 4.2 4.27 7.22 3.9 6.06 9.96 14.3 18.64 22.98a141 141 0 0 0 36.09 25.85l28.46-8.26-.2-.1-.22-.12c-3.06-1.55-7.4-3.89-12.5-7-10.2-6.2-23.54-15.53-36-28a133 133 0 0 1-25.14-34.86m39.99 79.97a145 145 0 0 1-33.3-24.66 144 144 0 0 1-19.19-23.63 109 109 0 0 1-3.97-6.67l-8.9 26.84.1.28.47 1.2a45 45 0 0 0 2.2 4.46A67 67 0 0 0 64.6 129.7a82 82 0 0 0 20.8 14.97 45 45 0 0 0 1.92.89h.03l.25.13zM49.98 117.2q-.67-1.2-1.17-2.21l-10.53 31.74v.02a8.2 8.2 0 0 0 2 8.54 8.2 8.2 0 0 0 8.62 1.64l.1-.04 32.86-9.54a86 86 0 0 1-20.1-14.83 71 71 0 0 1-11.78-15.32m114.9-16.94a3.75 3.75 0 1 1-7.5 0 3.75 3.75 0 0 1 7.5 0m-3.75-37a3.75 3.75 0 1 0 0-7.5 3.75 3.75 0 0 0 0 7.5m-67.82-27.1a3.75 3.75 0 1 0 0-7.5 3.75 3.75 0 0 0 0 7.5"/></svg>