<svg aria-hidden="true" class="svg-spot spotTada" width="48" height="48"  viewBox="0 0 48 48"><path  d="M28.88 2.5a1.37 1.37 0 1 0-2.75 0v8a1.37 1.37 0 1 0 2.75 0zM20 26.27c-9.4-10.5-7.45-15.3-7.45-15.3s7.58 1.4 15.58 10.08c8 8.7 9.5 15.33 9.5 15.33s-8.25.39-17.64-10.11M14.7 32.1c-4.45-4.36-6.6-8.82-6.6-8.82L4.56 34.05s1.32 2.86 3.96 5.43a22 22 0 0 0 6.19 4.03l11.12-3.27s-6.66-3.76-11.12-8.13M45.5 21.88h-8a1.37 1.37 0 1 1 0-2.75h8a1.37 1.37 0 1 1 0 2.75M42.97 6.97a1.38 1.38 0 0 0-1.94-1.94l-9 9a1.38 1.38 0 0 0 1.94 1.94z" opacity=".2"/><path  d="M34.88 6.53a1.37 1.37 0 1 1-2.75 0 1.37 1.37 0 0 1 2.74 0m-4.8 10.97a49 49 0 0 0-11.35-8.68c-1.5-.79-2.79-1.3-3.75-1.53a5 5 0 0 0-1.34-.15c-.3.02-1.07.14-1.32.9L1.23 41.44a4.2 4.2 0 0 0 1.05 4.42 4.2 4.2 0 0 0 4.42.87l33.36-9.69.07-.03c.43-.2.6-.57.66-.8q.1-.34.08-.66-.01-.64-.23-1.47c-.28-1.12-.84-2.6-1.68-4.33a47 47 0 0 0-8.89-12.24m-16.81-5.97q.42 1.01 1.04 2.26a44 44 0 0 0 8.11 11.24A62 62 0 0 0 37.15 35.8l-7.98 2.31-.04-.02q-.26-.12-.75-.38a44 44 0 0 1-10.4-7.64 44 44 0 0 1-5.84-7.2A32 32 0 0 1 10.5 20l-.03-.07zm-6.17 18.6 2.51-7.57q.36.62.86 1.4a46 46 0 0 0 15.95 14.96l-8.01 2.33-.57-.26q-.6-.3-1.63-.9a25 25 0 0 1-4.85-3.76 21 21 0 0 1-3.45-4.5 14 14 0 0 1-.81-1.7m-.9 2.74a23 23 0 0 0 3.75 4.87 27 27 0 0 0 5.66 4.32l-9.56 2.78-.04.02c-.78.31-1.73.13-2.34-.45a2.2 2.2 0 0 1-.54-2.3v-.02zm32.44 1.45a60 60 0 0 1-14.8-10.7 42 42 0 0 1-7.74-10.73 35 35 0 0 1-1.57-3.61l-.02-.04q1.15.27 3.3 1.35a47 47 0 0 1 10.86 8.33 45 45 0 0 1 8.5 11.7c.73 1.5 1.21 2.77 1.47 3.7m4.25-7.8a1.37 1.37 0 1 1-2.75 0 1.37 1.37 0 0 1 2.74 0M41.5 15.9a1.37 1.37 0 1 0 0-2.74 1.37 1.37 0 0 0 0 2.75m-20-8.01a1.37 1.37 0 1 0 0-2.74 1.37 1.37 0 0 0 0 2.75"/></svg>