<svg aria-hidden="true" class="svg-spot spotTadaLg" width="97" height="96"  viewBox="0 0 97 96"><path  d="M57.38 2.38a2.37 2.37 0 1 0-4.76 0v17.25a2.37 2.37 0 1 0 4.76 0zm-20.5 48C15.61 25.62 25.24 18.5 25.24 18.5s14.44 3.48 31.25 21.75 21.75 33.5 21.75 33.5c-10.62 3.88-34.2-15.36-41.37-23.37m-8.15 14.38c-9.38-9.19-13.9-18.56-13.9-18.56L7.39 68.86s2.69 6.23 8.24 11.64 13.1 8.24 13.1 8.24l23.4-6.87s-14.02-7.92-23.4-17.1m45.3-24.73a2.4 2.4 0 0 1 2.38-2.37h17.25a2.38 2.38 0 0 1 0 4.75H76.4a2.4 2.4 0 0 1-2.38-2.38m13.76-28.5a2.38 2.38 0 0 0-3.35-3.35L65.5 27.11a2.37 2.37 0 1 0 3.36 3.36z" opacity=".2"/><path  d="M44.88 10.5a2.37 2.37 0 1 1-4.75 0 2.37 2.37 0 0 1 4.74 0m22.63 2.38a2.37 2.37 0 1 0 0-4.75 2.37 2.37 0 0 0 0 4.74m19.38 14.41a2.37 2.37 0 1 1-4.75 0 2.37 2.37 0 0 1 4.75 0m0 25.24a2.37 2.37 0 1 1-4.75 0 2.37 2.37 0 0 1 4.75 0M36.89 16.33a36 36 0 0 0-7.77-3.17 9 9 0 0 0-2.62-.31c-.61.04-1.84.28-2.25 1.5L.87 84.85A8.3 8.3 0 0 0 3 93.26a8.3 8.3 0 0 0 8.68 1.7l70.14-20.37.1-.05a2 2 0 0 0 1.07-1.3q.17-.62.15-1.23-.04-1.22-.48-2.94a49 49 0 0 0-3.48-9A98 98 0 0 0 60.6 34.48c-9.03-9.02-17.43-14.85-23.72-18.15M3.79 85.58l6.87-20.74.6 1.11c1.52 2.71 4 6.36 7.86 10.23a57 57 0 0 0 10.9 8.47l.38.23 1.77 1L10.7 92.1l-.3.12c-1.8.63-3.94.18-5.32-1.14a5.3 5.3 0 0 1-1.3-5.5m8.28-24.96 5.77-17.42q.76 1.4 1.96 3.31l.5.79a96 96 0 0 0 12.77 15.75A97 97 0 0 0 50.01 76.4l.43.27q1.95 1.2 3.49 2.06l.97.53-18.44 5.35-.46-.19-.63-.29-.75-.37q-1.22-.6-3.07-1.7l-.36-.22a54 54 0 0 1-9.95-7.79 44 44 0 0 1-7.36-9.57l-.17-.3q-.74-1.37-1.13-2.28l-.16-.38-.23-.58zm7.1-21.4 6.51-19.66a75 75 0 0 0 2.92 6.66l.2.42a89 89 0 0 0 16.55 22.81 129 129 0 0 0 22.9 17.99l1.07.65c3.23 1.97 6 3.47 8.02 4.5l.2.1-18.45 5.37-.62-.3-.79-.4-1.02-.54a88 88 0 0 1-4.22-2.43l-.84-.52a94 94 0 0 1-16.4-12.95 93 93 0 0 1-11.89-14.5l-.49-.74a69 69 0 0 1-2.58-4.34l-.35-.66-.28-.55-.28-.55zm8.63-22.64-.22-.67q.36.05.83.16c1.65.41 4.07 1.34 7.08 2.92 6 3.15 14.17 8.78 23 17.61a95 95 0 0 1 18 24.78 47 47 0 0 1 3.27 8.42l.07.26.11.49-.94-.47-.59-.3c-1.93-1-4.52-2.42-7.53-4.25l-.55-.34c-6.58-4.04-15-10-22.85-17.86a86 86 0 0 1-16.2-22.44l-.22-.46a69 69 0 0 1-2.97-7.02l-.1-.3z"/></svg>