<svg aria-hidden="true" class="svg-spot spotTargetXL" width="196" height="196"  viewBox="0 0 196 196"><path  d="M5.16 108.41c1.38 8.28 12.35 34.06 25.26 47.21q1.6 1.66 3.57 3.79c12.16 13.09 34.92 37.6 76.95 33.17 46.56-4.91 61.12-23.4 71.7-50.77 10.57-27.38 18.38-80.42-10.4-116.68S38.44 4.9 20.63 39.46 3.78 100.14 5.16 108.41M155 100.5a60.5 60.5 0 1 1-121 0 60.5 60.5 0 0 1 121 0" opacity=".07"/><path  d="M147.23 53.77 145 42.62l13.9-13.91a1 1 0 0 1 1.72.7v10.97h10.97a1 1 0 0 1 .7 1.71L158.4 56zM96.5 148a42.5 42.5 0 1 0 0-85 42.5 42.5 0 0 0 0 85m-.5-23a20 20 0 1 1 0-40 20 20 0 0 1 0 40" opacity=".2"/><path  d="M163 21a2 2 0 0 0-3.4-1.43l-16 15.61a2 2 0 0 0-.56 1.83l2.02 10.1-7.88 7.73a62.5 62.5 0 1 0 2.83 2.82l7.87-7.72 10.11 2.02a2 2 0 0 0 1.83-.56l15.61-16A2 2 0 0 0 174 32h-11zm-14.07 25.07-1.76-8.78L159 25.75V34c0 1.1.9 2 2 2h8.25l-11.54 11.83zM36 100.5a58.5 58.5 0 0 1 98.32-42.86L123.78 68a44.5 44.5 0 1 0 2.9 2.77l10.47-10.3A58.5 58.5 0 1 1 36 100.5M94.5 61c10.1 0 19.32 3.7 26.41 9.8l-12.67 12.43a22 22 0 1 0 2.8 2.86l12.77-12.54A40.5 40.5 0 1 1 94.5 61M94 82c4.31 0 8.27 1.52 11.37 4.05L92.1 99.07a2 2 0 1 0 2.8 2.86l13.27-13.03A18 18 0 1 1 94 82M24 29a2 2 0 1 0-4 0v4h-4a2 2 0 1 0 0 4h4v4a2 2 0 1 0 4 0v-4h4a2 2 0 1 0 0-4h-4zm149 128 4 4-4 4-4-4zm-20.5 13 8.5 8.5-8.5 8.5-8.5-8.5zm-2.83 8.5 2.83 2.83 2.83-2.83-2.83-2.83z"/></svg>