<svg aria-hidden="true" class="svg-spot spotThemeXL" width="196" height="196"  viewBox="0 0 196 196"><path  d="m56.69 173.59.47.1c9.98 2.2 20.34 2.06 34 1.88 11-.15 24.17-.32 41.01.68 37.74 2.24 42.37-10.41 56.83-54.25 14.46-43.83-12.22-69.55-46-97-29.05-23.6-73.84-6.21-97.08 3H78a6 6 0 0 1 6 6v49.63l39.3-39.3a6 6 0 0 1 8.48 0l23 23.02a6 6 0 0 1 0 8.48L115.63 115H165a6 6 0 0 1 6 6v32a6 6 0 0 1-6 6H46a6 6 0 0 1-6-6V34a6 6 0 0 1 1.95-4.43q-3.16 1.25-5.5 2.07c-17.71 6.1-21.92 22.78-25.27 78.24-3.25 53.72 39.4 62.46 45.5 63.7" opacity=".07"/><path  d="M130.02 53.62a2 2 0 0 0-2.83 0L84 96.82v57.33l71.86-71.86a2 2 0 0 0 0-2.83z" opacity=".2"/><path  d="m120.88 18.23-8.49-8.48-8.49 8.48 8.49 8.49zm-8.49 2.83-2.83-2.83 2.83-2.83 2.83 2.83zM157 168a2 2 0 1 0-4 0v4h-4a2 2 0 1 0 0 4h4v4a2 2 0 1 0 4 0v-4h4a2 2 0 1 0 0-4h-4zM15 56a2 2 0 0 1 2 2v4h4a2 2 0 1 1 0 4h-4v4a2 2 0 1 1-4 0v-4H9a2 2 0 1 1 0-4h4v-4c0-1.1.9-2 2-2m47.5 92a10.5 10.5 0 1 0 0-21 10.5 10.5 0 0 0 0 21m0-4a6.5 6.5 0 1 1 0-13 6.5 6.5 0 0 1 0 13M40 34a6 6 0 0 1 6-6h32a6 6 0 0 1 6 6v49.63l39.3-39.3a6 6 0 0 1 8.48 0l23 23.02a6 6 0 0 1 0 8.48L115.63 115H165a6 6 0 0 1 6 6v32a6 6 0 0 1-6 6H46a6 6 0 0 1-6-6zm44 112.62V153a6 6 0 0 1-.34 2H165a2 2 0 0 0 2-2v-32a2 2 0 0 0-2-2h-53.38zm0-5.66L151.96 73a2 2 0 0 0 0-2.82l-23.01-23.02a2 2 0 0 0-2.83 0L84 89.3zM46 32a2 2 0 0 0-2 2v119c0 1.1.9 2 2 2h32a2 2 0 0 0 2-2V34a2 2 0 0 0-2-2z"/></svg>