<svg aria-hidden="true" class="svg-spot spotThree" width="36" height="36"  viewBox="0 0 36 36"><path  d="M9.15 18.26a1 1 0 0 1 1-1h2.34q2.4 0 3.55-1.17a4.3 4.3 0 0 0 1.15-3.13c0-2.57-1.81-3.98-4.28-3.98a4.4 4.4 0 0 0-4.1 3.03c-.15.53-.59.99-1.14.99H3.4c-.55 0-1-.45-.94-1 .6-4.95 5.68-8 10.3-8q5.02 0 7.87 2.37 2.84 2.36 2.84 6.5 0 2.14-1.32 3.94a8.6 8.6 0 0 1-3.48 2.76 7.8 7.8 0 0 1 3.98 2.83 7.5 7.5 0 0 1 1.32 4.45 8.1 8.1 0 0 1-3.08 6.65Q17.82 36 12.75 36 8.02 36 5 33.54a8 8 0 0 1-2.95-5.5c-.06-.55.4-1 .95-1h4.28c.55 0 .98.45 1.13.99.51 1.9 2.5 2.99 4.5 2.99 2.57 0 4.77-1.52 4.77-4.26q0-4.66-5.2-4.66h-2.33a1 1 0 0 1-1-1zM28.9 32.54c0-2 1.62-3.32 3.54-3.32S36 30.55 36 32.54c0 2-1.64 3.27-3.56 3.27-1.91 0-3.54-1.28-3.54-3.27" opacity=".2"/><path  d="M2.46 10h4.32a5.4 5.4 0 0 1 5.12-4.01 5.5 5.5 0 0 1 3.72 1.3c1 .88 1.57 2.15 1.57 3.67 0 1.66-.61 3.03-1.7 3.96a6 6 0 0 1-4 1.34H9.15v2.84h2.32c1.87 0 3.45.41 4.58 1.42 1.14 1.02 1.63 2.5 1.63 4.24 0 1.66-.68 3.01-1.78 3.93a6.2 6.2 0 0 1-4 1.33c-2.35 0-4.98-1.36-5.52-3.98H2.06a7 7 0 0 0 2.9 4.89 11.5 11.5 0 0 0 6.8 2.07c2.6 0 5.19-.7 7.1-2.08a7.2 7.2 0 0 0 3.1-6.07c0-3.01-1.76-5.32-4.63-6.33a1 1 0 0 1-.07-1.86c2.4-1.05 4.2-3.3 4.2-5.78 0-2.7-1.14-4.63-2.88-5.9A11.6 11.6 0 0 0 11.75 3c-2.27 0-4.64.8-6.43 2.23A7.4 7.4 0 0 0 2.46 10m1.62-6.33A12.6 12.6 0 0 1 11.75 1c2.9 0 5.8.74 8.01 2.36a9 9 0 0 1 3.7 7.52 8.2 8.2 0 0 1-3.63 6.6 8.4 8.4 0 0 1 4.13 7.37c0 3.43-1.6 6-3.94 7.7A14.3 14.3 0 0 1 11.75 35a13.5 13.5 0 0 1-7.98-2.47A9.1 9.1 0 0 1 0 25.03a1 1 0 0 1 1-1h6.28a1 1 0 0 1 1 1c0 1.75 1.62 2.99 3.62 2.99a4.3 4.3 0 0 0 2.72-.87 3 3 0 0 0 1.06-2.39c0-1.37-.37-2.22-.97-2.75-.61-.55-1.63-.91-3.24-.91H8.15a1 1 0 0 1-1-1v-4.84a1 1 0 0 1 1-1h3.34a4 4 0 0 0 2.7-.85c.6-.52 1-1.3 1-2.45 0-.99-.36-1.7-.9-2.18a3.54 3.54 0 0 0-4.6.1A3 3 0 0 0 8.67 11a1 1 0 0 1-1 1H1.4a1 1 0 0 1-1-1 9.3 9.3 0 0 1 3.69-7.33m27.36 24.55c-1.47 0-2.54.98-2.54 2.32 0 1.32 1.06 2.27 2.54 2.27 1.5 0 2.56-.95 2.56-2.27 0-1.34-1.09-2.32-2.56-2.32m-4.54 2.32c0-2.64 2.17-4.32 4.54-4.32 2.36 0 4.56 1.67 4.56 4.32 0 2.68-2.22 4.27-4.56 4.27s-4.54-1.61-4.54-4.27"/></svg>