<svg aria-hidden="true" class="svg-spot spotUnlock" width="48" height="48"  viewBox="0 0 48 48"><path  d="M12 22a2 2 0 0 0-2 2v19a4 4 0 0 0 4 4h24a4 4 0 0 0 4-4V26a4 4 0 0 0-4-4zm11 2a5 5 0 0 1 2.67 9.23l.05.35q.23 1.27.61 2.86A2.06 2.06 0 0 1 24.35 39h-2.7a2.06 2.06 0 0 1-1.98-2.56c.29-1.2.52-2.3.66-3.2l-.19-.14A5 5 0 0 1 23 24" opacity=".2"/><path  d="M18 29a5 5 0 1 1 7.67 4.23l.05.35q.23 1.27.61 2.86A2.06 2.06 0 0 1 24.35 39h-2.7a2.06 2.06 0 0 1-1.98-2.56c.29-1.2.52-2.3.66-3.2l-.19-.14A5 5 0 0 1 18 29m8 0a3 3 0 1 0-4.6 2.54l.13.09a2 2 0 0 1 .78 1.92q-.25 1.47-.7 3.36 0 .08.04.09h2.7q.04 0 .04-.09c-.3-1.25-.54-2.4-.7-3.36a2 2 0 0 1 .9-2.01l.17-.1A3 3 0 0 0 26 29M22.93 5A10 10 0 0 0 13 15.06V18h24a3 3 0 0 1 3 3v21a3 3 0 0 1-3 3H9a3 3 0 0 1-3-3V21a3 3 0 0 1 3-3h2v-2.94A12 12 0 0 1 22.93 3c5.25 0 9.7 3.44 11.3 8.18a1 1 0 1 1-1.9.64A10 10 0 0 0 22.93 5M9 20a1 1 0 0 0-1 1v21a1 1 0 0 0 1 1h28a1 1 0 0 0 1-1V21a1 1 0 0 0-1-1z"/></svg>