<svg width="18" height="18" viewBox="0 0 18 18" fill="none" xmlns="http://www.w3.org/2000/svg">
<path d="M1.5802 12.7368C1.41473 13.0066 1.22888 13.3198 1.07104 13.5693C0.929767 13.808 1.00561 14.1159 1.24161 14.2617L4.55113 16.2983C4.6673 16.3701 4.80741 16.3921 4.94 16.3596C5.0726 16.327 5.18656 16.2426 5.25631 16.1252C5.38869 15.9038 5.55926 15.6161 5.7451 15.308C7.05618 13.1441 8.3749 13.4089 10.7527 14.5443L14.0342 16.1049C14.1585 16.164 14.3014 16.1703 14.4304 16.1224C14.5594 16.0744 14.6635 15.9763 14.719 15.8503L16.2948 12.2862C16.4062 12.0316 16.2929 11.7348 16.0403 11.6192C15.3478 11.2933 13.9705 10.6442 12.7307 10.0459C8.27052 7.87944 4.47985 8.01946 1.5802 12.7368Z" fill="url(#paint0_linear_12269_4)"/>
<path d="M16.4198 4.64841C16.5853 4.37856 16.7711 4.06542 16.929 3.81594C17.0703 3.5772 16.9944 3.26929 16.7584 3.12348L13.4489 1.08686C13.3318 1.00797 13.1872 0.981272 13.0496 1.01313C12.912 1.04499 12.7939 1.13254 12.7233 1.25488C12.591 1.47636 12.4204 1.76404 12.2346 2.07208C10.9235 4.23599 9.60476 3.97123 7.227 2.83581L3.95567 1.28288C3.83138 1.22373 3.68844 1.21741 3.55943 1.26537C3.43041 1.31333 3.32631 1.41149 3.27085 1.53746L1.69501 5.10156C1.58367 5.35611 1.69696 5.65292 1.94959 5.76855C2.64204 6.09441 4.01931 6.74359 5.25911 7.34185C9.7295 9.50576 13.5202 9.36065 16.4198 4.64841Z" fill="url(#paint1_linear_12269_4)"/>
<defs>
<linearGradient id="paint0_linear_12269_4" x1="16.1956" y1="17.3415" x2="6.18525" y2="11.5822" gradientUnits="userSpaceOnUse">
<stop stop-color="#0050D3"/>
<stop offset="0.94" stop-color="#007FFC"/>
<stop offset="1" stop-color="#0082FF"/>
</linearGradient>
<linearGradient id="paint1_linear_12269_4" x1="1.79166" y1="0.021836" x2="11.8131" y2="5.77268" gradientUnits="userSpaceOnUse">
<stop stop-color="#0050D3"/>
<stop offset="0.94" stop-color="#007FFC"/>
<stop offset="1" stop-color="#0082FF"/>
</linearGradient>
</defs>
</svg>
