<svg width="18" height="18" viewBox="0 0 18 18" fill="none" xmlns="http://www.w3.org/2000/svg">
<path d="M12.2188 5.27344L9.79017 5.01562C9.56517 5.01562 9.36829 5.0918 9.19954 5.24414L6.41248 7.63867C5.96248 8.04492 5.96248 8.67969 6.35623 9.06055C6.72185 9.41602 7.42812 9.53711 7.90625 9.15625L10.1812 7.2832C10.3781 7.13086 10.6594 7.13086 10.8281 7.30859C10.9969 7.46094 10.9969 7.71484 10.8 7.86719L10.1812 8.40625L14 10V7L12.9844 5.67969C12.8156 5.52734 12.4719 5.27344 12.2188 5.27344ZM14 11L9.39373 9.03516L8.54998 9.7207C7.70623 10.4316 6.4406 10.3555 5.68123 9.61914C4.94998 8.88281 5.00623 7.71484 5.82185 7.0293L8.01562 5.01562L5.68123 5.27344C5.34375 5.35352 5.09063 5.52734 4.92188 5.67969L4 7V12L5.90625 12.7266C7.32517 13.3927 8.64369 13.7097 9.79017 13.7887C11.172 13.7887 12.7509 13.0803 13.6641 12C13.8688 11.7578 14 11.5938 14 11Z" fill="#FFC166"/>
<path opacity="0.7" d="M18 8.5C18 7.67157 17.3284 7 16.5 7H15V12H16.5C17.3284 12 18 11.3284 18 10.5V8.5Z" fill="#0077CC"/>
<path opacity="0.7" d="M0 8.5C0 7.67157 0.671573 7 1.5 7H3V12H1.5C0.671573 12 0 11.3284 0 10.5V8.5Z" fill="#0077CC"/>
</svg>
