<svg width="18" height="18" viewBox="0 0 18 18" fill="none" xmlns="http://www.w3.org/2000/svg">
<path d="M8.00018 13.9996C7.4479 13.9996 7.00018 14.4473 7.00018 14.9996C7.00018 15.5519 7.4479 15.9996 8.00018 15.9996H10.0002C10.5525 15.9996 11.0002 15.5519 11.0002 14.9996C11.0002 14.4473 10.5525 13.9996 10.0002 13.9996H8.00018Z" fill="#9FA6AD"/>
<path fill-rule="evenodd" clip-rule="evenodd" d="M8.45124 2.02501C11.3808 1.74322 14.0002 3.87611 14.0002 6.72687C14.0002 8.27212 13.2205 9.61441 12.0557 10.4654L12.05 10.4695C11.8064 10.6449 11.6652 10.9255 11.6652 11.2397V11.3793C11.6652 12.3401 10.8475 12.9996 9.99803 12.9996H7.9966C7.14715 12.9996 6.32945 12.3401 6.32945 11.3793V11.2087C6.32945 10.9419 6.19345 10.6503 5.8956 10.427C4.6029 9.45761 3.82046 7.89291 4.03536 6.15445L4.03579 6.15105C4.31783 3.93197 6.21719 2.27265 8.43677 2.02651L8.45124 2.02501ZM5.5 7C5.5 7.27614 5.72386 7.5 6 7.5C6.27614 7.5 6.5 7.27614 6.5 7C6.5 5.61929 7.61929 4.5 9 4.5C9.27614 4.5 9.5 4.27614 9.5 4C9.5 3.72386 9.27614 3.5 9 3.5C7.067 3.5 5.5 5.067 5.5 7Z" fill="#FFC166"/>
</svg>
