<svg width="18" height="18" viewBox="0 0 18 18" fill="none" xmlns="http://www.w3.org/2000/svg">
<path fill-rule="evenodd" clip-rule="evenodd" d="M13.4999 9.5C13.4999 7.56702 11.933 6.00002 9.99998 6V4C13.0375 4.00002 15.4999 6.46245 15.4999 9.5C15.4999 11.6005 14.3224 13.426 12.5915 14.3524C12.8331 15.2221 13 16 13 16H8C8 16 8.09233 15.5741 8.23872 15.0001H5C4.44772 15.0001 4 14.5524 4 14.0001C4 13.4478 4.44772 13.0001 5 13.0001H8.8437C9.06185 12.4261 9.29335 12.0001 9.49994 12.0001H11.4999C11.6311 12.0001 11.7712 12.167 11.9112 12.4325C12.8678 11.8078 13.4999 10.7277 13.4999 9.5Z" fill="#D6D9DC"/>
<path d="M2 17.0001C2 16.4478 2.44772 16.0001 3 16.0001H15C15.5523 16.0001 16 16.4478 16 17.0001H2Z" fill="#9FA6AD"/>
<path d="M4.99994 3.99991C4.99994 3.44762 5.44765 2.99991 5.99994 2.99991H7.99994C8.55222 2.99991 8.99994 3.44762 8.99994 3.99991V7.99991C8.99994 8.55219 8.55222 8.99991 7.99994 8.99991H5.99994C5.44765 8.99991 4.99994 8.55219 4.99994 7.99991V3.99991Z" fill="#D6D9DC"/>
<path d="M5.99994 0.999939H7.99994L7.99994 2.99991H5.99994L5.99994 0.999939Z" fill="#9FA6AD"/>
<path d="M5.99994 8.99991H7.99994L7.99994 10.9999H5.99994L5.99994 8.99991Z" fill="#9FA6AD"/>
</svg>
