<svg width="18" height="18" viewBox="0 0 18 18" fill="none" xmlns="http://www.w3.org/2000/svg">
<path fill-rule="evenodd" clip-rule="evenodd" d="M0.638794 11.5179C0.362652 11.0396 0.526527 10.4281 1.00482 10.1519L13.9952 2.65192C14.4735 2.37577 15.0851 2.53965 15.3612 3.01794L17.3612 6.48204C17.6374 6.96034 17.4735 7.57193 16.9952 7.84807L16.1292 8.34807L14.6292 5.74999L13.7631 6.24999L15.2631 8.84807L13.5311 9.84807L12.5311 8.11602L11.6651 8.61602L12.6651 10.3481L10.933 11.3481L9.43302 8.74999L8.567 9.24999L10.067 11.8481L8.33495 12.8481L7.33495 11.116L6.46892 11.616L7.46892 13.3481L5.73687 14.3481L4.23687 11.75L3.37084 12.25L4.87084 14.8481L4.00482 15.3481C3.52653 15.6242 2.91494 15.4603 2.63879 14.982L0.638794 11.5179ZM14.5622 4.63397C14.8013 4.4959 14.8833 4.1901 14.7452 3.95095C14.6071 3.71181 14.3013 3.62987 14.0622 3.76794C13.823 3.90601 13.7411 4.21181 13.8792 4.45095C14.0172 4.6901 14.323 4.77204 14.5622 4.63397Z" fill="#BAC0C5"/>
</svg>
