<svg width="18" height="18" viewBox="0 0 18 18" fill="none" xmlns="http://www.w3.org/2000/svg">
<path d="M16 4C16 5.65685 14.6569 7 13 7C11.3431 7 10 5.65685 10 4C10 2.34315 11.3431 1 13 1C14.6569 1 16 2.34315 16 4Z" fill="black"/>
<path d="M8 9C8 10.6569 6.65685 12 5 12C3.34315 12 2 10.6569 2 9C2 7.34315 3.34315 6 5 6C6.65685 6 8 7.34315 8 9Z" fill="black"/>
<path d="M3.88101 8.07147L12 3.38397L13 5.11602L4.88101 9.80352L3.88101 8.07147Z" fill="black"/>
<path d="M16 14C16 15.6569 14.6569 17 13 17C11.3431 17 10 15.6569 10 14C10 12.3431 11.3431 11 13 11C14.6569 11 16 12.3431 16 14Z" fill="black"/>
<path d="M4.93733 8.22772L13.0563 12.9152L12.0563 14.6473L3.93733 9.95977L4.93733 8.22772Z" fill="black"/>
</svg>
